<mxfile host="app.diagrams.net" agent="Mozilla/5.0 (Macintosh; Intel Mac OS X 10_15_7) AppleWebKit/537.36 (KHTML, like Gecko) Chrome/140.0.0.0 Safari/537.36" version="28.2.3">
  <diagram name="Page-1" id="doq-zEzbjmt41PRHfy16">
    <mxGraphModel dx="2037" dy="1094" grid="1" gridSize="10" guides="1" tooltips="1" connect="1" arrows="1" fold="1" page="1" pageScale="1" pageWidth="850" pageHeight="1100" math="0" shadow="0">
      <root>
        <mxCell id="0" />
        <mxCell id="1" parent="0" />
        <mxCell id="EQLkxKmraLCGRCHlAuL3-46" value="" style="rounded=0;whiteSpace=wrap;html=1;" vertex="1" parent="1">
          <mxGeometry y="10" width="1240" height="920" as="geometry" />
        </mxCell>
        <mxCell id="Z4dEkWU-I7dmtToVSUjf-194" value="" style="rounded=1;whiteSpace=wrap;html=1;strokeColor=#0070F2;fillColor=#EBF8FF;arcSize=32;absoluteArcSize=1;strokeWidth=1.5;" parent="1" vertex="1">
          <mxGeometry x="372" y="50" width="628" height="860" as="geometry" />
        </mxCell>
        <mxCell id="Z4dEkWU-I7dmtToVSUjf-195" value="BTP" style="image;image=img/lib/sap/SAP_Logo.svg;editableCssRules=.*;part=1;verticalLabelPosition=middle;labelBackgroundColor=none;verticalAlign=middle;imageAspect=0;labelPosition=right;align=left;fontSize=16;fontStyle=1;spacingLeft=0;fontColor=#002A86;spacing=0;" parent="Z4dEkWU-I7dmtToVSUjf-194" vertex="1">
          <mxGeometry width="37" height="19" relative="1" as="geometry">
            <mxPoint x="20" y="20" as="offset" />
          </mxGeometry>
        </mxCell>
        <mxCell id="a5ctUV8vy-N1pXA6XF1Q-48" value="&lt;font color=&quot;#0070f2&quot; face=&quot;arial&quot; style=&quot;font-size: 16px;&quot;&gt;&lt;b style=&quot;font-size: 16px;&quot;&gt;Authentication Scenario for app deployed in Kyma runtime&lt;/b&gt;&lt;/font&gt;" style="text;html=1;align=left;verticalAlign=middle;resizable=0;points=[];autosize=1;strokeColor=none;fillColor=none;fontSize=12;fontColor=#1d2d3e;fontFamily=Helvetica;" parent="1" vertex="1">
          <mxGeometry x="372" y="20" width="470" height="30" as="geometry" />
        </mxCell>
        <mxCell id="a5ctUV8vy-N1pXA6XF1Q-57" value="" style="endArrow=none;html=1;strokeColor=#475e75;bendable=1;rounded=0;endFill=0;endSize=4;edgeStyle=entityRelationEdgeStyle;startArrow=none;startFill=0;startSize=4;jumpStyle=none;jumpSize=0;targetPerimeterSpacing=15;strokeWidth=1.5;" parent="1" edge="1">
          <mxGeometry width="50" height="50" relative="1" as="geometry">
            <mxPoint x="154.53" y="1609.4099999999999" as="sourcePoint" />
            <mxPoint x="274.53000000000003" y="1609.4099999999999" as="targetPoint" />
          </mxGeometry>
        </mxCell>
        <mxCell id="a5ctUV8vy-N1pXA6XF1Q-58" value="" style="shape=image;editableCssRules=.*;verticalLabelPosition=bottom;labelBackgroundColor=default;verticalAlign=top;aspect=fixed;imageAspect=0;image=data:image/svg+xml,PHN2ZyB4bWxucz0iaHR0cDovL3d3dy53My5vcmcvMjAwMC9zdmciIHZpZXdCb3g9Ii0wLjUgLTAuNSAyOCAyOCIgaGVpZ2h0PSIyOCIgd2lkdGg9IjI4Ij4mI3hhOwkgIDxzdHlsZSB0eXBlPSJ0ZXh0L2NzcyI+LnN0MCB7IHN0b3AtY29sb3I6IHJnYig5MSwgMTE1LCAxMzkpOyB9IC5zdDEgeyBzdG9wLWNvbG9yOiByZ2IoMzQsIDUzLCA3Mik7IH0gPC9zdHlsZT4mI3hhOwk8ZGVmcz4mI3hhOwkJPGxpbmVhckdyYWRpZW50IGdyYWRpZW50VW5pdHM9InVzZXJTcGFjZU9uVXNlIiB5Mj0iMjUuMzA5IiB4Mj0iMjMuNDU0IiB5MT0iMy40NzQiIHgxPSIyLjAzOSIgaWQ9IkEiPiYjeGE7CQkJPHN0b3AgY2xhc3M9InN0MCIvPiYjeGE7CQkJPHN0b3AgY2xhc3M9InN0MSIgb2Zmc2V0PSIxIi8+JiN4YTsJCTwvbGluZWFyR3JhZGllbnQ+JiN4YTsJPC9kZWZzPiYjeGE7CTxwYXRoIGZpbGw9InVybCgjQSkiIGQ9Ik0tLjUgMTMuNDcyYzAtMS45My4zNzEtMy43MyAxLjExMy01LjQuNzQyLTEuNzA3IDEuNzQ0LTMuMTkyIDMuMDA2LTQuNDUzUzYuMzY1IDEuMzU2IDguMDczLjYxMyAxMS41OTgtLjUgMTMuNTI4LS41czMuNzMuMzcxIDUuNCAxLjExM2MxLjcwNy43NDIgMy4xOTIgMS43NDQgNC40NTMgMy4wMDZzMi4yNjQgMi43NDYgMy4wMDYgNC40NTNjLjc0MiAxLjY3IDEuMTEzIDMuNDcgMS4xMTMgNS40cy0uMzcxIDMuNzQ4LTEuMTEzIDUuNDU1LTEuNzQ0IDMuMTkyLTMuMDA2IDQuNDUzYTE0LjI4IDE0LjI4IDAgMCAxLTQuNDUzIDMuMDA2Yy0xLjY3Ljc0Mi0zLjQ3IDEuMTEzLTUuNCAxLjExM3MtMy43NDgtLjM3MS01LjQ1NS0xLjExM2ExNC4yOCAxNC4yOCAwIDAgMS00LjQ1My0zLjAwNiAxNC4yOCAxNC4yOCAwIDAgMS0zLjAwNi00LjQ1M0MtLjEyOSAxNy4yMi0uNSAxNS40MDItLjUgMTMuNDcyem0xNi44MTEgNC4yMzFhNi42NSA2LjY1IDAgMCAxIDMuMjg0LjgzNWMxLjAwMi41MiAxLjgxOCAxLjI0MyAyLjQ0OSAyLjE3MWExMC4xNCAxMC4xNCAwIDAgMCAxLjk0OC0zLjI4NGMuNDgyLTEuMjI1LjcyNC0yLjU0Mi43MjQtMy45NTIgMC0xLjU1OS0uMjk3LTMuMDA2LS44OTEtNC4zNDItLjU5NC0xLjM3My0xLjM5Mi0yLjU2MS0yLjM5NC0zLjU2M3MtMi4xOS0xLjgtMy41NjMtMi4zOTRjLTEuMzM2LS41OTQtMi43ODMtLjg5MS00LjM0Mi0uODkxcy0zLjAyNC4yOTctNC4zOTguODkxYy0xLjMzNi41OTQtMi41MjQgMS4zOTItMy41NjMgMi4zOTRBMTEuMzUgMTEuMzUgMCAwIDAgMy4xNzQgOS4xM2MtLjU5NCAxLjMzNi0uODkxIDIuNzgzLS44OTEgNC4zNDIgMCAxLjQxLjIyMyAyLjcyOC42NjggMy45NTIuNDgyIDEuMjI1IDEuMTUgMi4zMTkgMi4wMDQgMy4yODQuNjMxLS45MjggMS40NDctMS42NTEgMi40NDktMi4xNzFhNi42NSA2LjY1IDAgMCAxIDMuMjg0LS44MzV6bTIuNzgzLTcuMDE0YTUuNjggNS42OCAwIDAgMS0uNDQ1IDIuMjI3IDUuODcgNS44NyAwIDAgMS0xLjIyNSAxLjc4MWMtLjQ4Mi40ODItMS4wNTguODcyLTEuNzI2IDEuMTY5cy0xLjM5Mi40NDUtMi4xNzEuNDQ1YTUuNjggNS42OCAwIDAgMS0yLjIyNy0uNDQ1IDYuNDQgNi40NCAwIDAgMS0xLjc4MS0xLjE2OSA2LjQ0IDYuNDQgMCAwIDEtMS4xNjktMS43ODEgNS42OCA1LjY4IDAgMCAxLS40NDUtMi4yMjdjMC0uNzc5LjE0OC0xLjUwMy40NDUtMi4xNzFBNi40NCA2LjQ0IDAgMCAxIDkuNTIgNi43MzdhNS44NyA1Ljg3IDAgMCAxIDEuNzgxLTEuMjI1IDUuNjggNS42OCAwIDAgMSAyLjIyNy0uNDQ1Yy43NzkgMCAxLjUwMy4xNDggMi4xNzEuNDQ1czEuMjQzLjcwNSAxLjcyNiAxLjIyNWE1Ljg3IDUuODcgMCAwIDEgMS4yMjUgMS43ODFjLjI5Ny42NjguNDQ1IDEuMzkyLjQ0NSAyLjE3MXptLTIuNzgzIDBjMC0uNzc5LS4yNzgtMS40MjktLjgzNS0xLjk0OC0uNTU3LS41NTctMS4yMDYtLjgzNS0xLjk0OC0uODM1YTIuNzMgMi43MyAwIDAgMC0yLjAwNC44MzVjLS41NTcuNTItLjgzNSAxLjE2OS0uODM1IDEuOTQ4YTIuNzMgMi43MyAwIDAgMCAuODM1IDIuMDA0Yy41NTcuNTIgMS4yMjUuNzc5IDIuMDA0Ljc3OS43NDIgMCAxLjM5Mi0uMjYgMS45NDgtLjc3OWEyLjczIDIuNzMgMCAwIDAgLjgzNS0yLjAwNHpNNy4wNzEgMjIuNjU3Yy44OTEuNjMxIDEuODc0IDEuMTMyIDIuOTUgMS41MDMgMS4xMTMuMzcxIDIuMjgyLjU1NyAzLjUwNy41NTcgMS4xODggMCAyLjMxOS0uMTg2IDMuMzk2LS41NTcgMS4xMTMtLjM3MSAyLjExNS0uODcyIDMuMDA2LTEuNTAzLS4zNzEtLjY2OC0uODkxLTEuMTg4LTEuNTU5LTEuNTU5LS42MzEtLjQwOC0xLjMxNy0uNjEyLTIuMDYtLjYxMmgtNS42MjJjLS43NDIgMC0xLjQ0Ny4yMDQtMi4xMTUuNjEyLS42MzEuMzcxLTEuMTMyLjg5MS0xLjUwMyAxLjU1OXoiLz4mI3hhOzwvc3ZnPg==;" parent="1" vertex="1">
          <mxGeometry x="68.75999999999999" y="1661.4099999999999" width="21" height="21" as="geometry" />
        </mxCell>
        <mxCell id="a5ctUV8vy-N1pXA6XF1Q-59" value="&lt;font style=&quot;&quot; face=&quot;arial&quot; size=&quot;1&quot;&gt;&lt;span style=&quot;font-size: 12px;&quot;&gt;User from Corporate&lt;br&gt;Identity Provider&lt;/span&gt;&lt;/font&gt;" style="text;html=1;align=left;verticalAlign=middle;resizable=0;points=[[0,0.5,0,0,0],[0.5,0,0,0,0],[0.5,1,0,0,0],[1,0.5,0,0,0]];autosize=1;strokeColor=none;fillColor=none;fontSize=12;fontColor=#000000;fontFamily=Helvetica;" parent="1" vertex="1">
          <mxGeometry x="97.57999999999998" y="1656.4099999999999" width="130" height="40" as="geometry" />
        </mxCell>
        <mxCell id="a5ctUV8vy-N1pXA6XF1Q-60" value="" style="shape=image;editableCssRules=.*;verticalLabelPosition=bottom;labelBackgroundColor=default;verticalAlign=top;aspect=fixed;imageAspect=0;image=data:image/svg+xml,PHN2ZyB4bWxucz0iaHR0cDovL3d3dy53My5vcmcvMjAwMC9zdmciIHZpZXdCb3g9Ii0wLjUgLTAuNSAyOCAyOCIgaGVpZ2h0PSIyOCIgd2lkdGg9IjI4Ij4mI3hhOwkgIDxzdHlsZSB0eXBlPSJ0ZXh0L2NzcyI+JiN4YTsJCS5zdDB7c3RvcC1jb2xvcjojMDBjZWFjO30mI3hhOwkJLnN0MXtzdG9wLWNvbG9yOiMwNzgzOGY7fSYjeGE7CSAgPC9zdHlsZT4mI3hhOwk8ZGVmcz4mI3hhOwkJPGxpbmVhckdyYWRpZW50IGdyYWRpZW50VW5pdHM9InVzZXJTcGFjZU9uVXNlIiB5Mj0iMjUuMzA5IiB4Mj0iMjMuNDU0IiB5MT0iMy40NzQiIHgxPSIyLjAzOSIgaWQ9IkEiPiYjeGE7CQkJPHN0b3AgY2xhc3M9InN0MCIvPiYjeGE7CQkJPHN0b3AgY2xhc3M9InN0MSIgb2Zmc2V0PSIxIi8+JiN4YTsJCTwvbGluZWFyR3JhZGllbnQ+JiN4YTsJPC9kZWZzPiYjeGE7CTxwYXRoIGZpbGw9InVybCgjQSkiIGQ9Ik0tLjUgMTMuNDcyYzAtMS45My4zNzEtMy43MyAxLjExMy01LjQuNzQyLTEuNzA3IDEuNzQ0LTMuMTkyIDMuMDA2LTQuNDUzUzYuMzY1IDEuMzU2IDguMDczLjYxMyAxMS41OTgtLjUgMTMuNTI4LS41czMuNzMuMzcxIDUuNCAxLjExM2MxLjcwNy43NDIgMy4xOTIgMS43NDQgNC40NTMgMy4wMDZzMi4yNjQgMi43NDYgMy4wMDYgNC40NTNjLjc0MiAxLjY3IDEuMTEzIDMuNDcgMS4xMTMgNS40cy0uMzcxIDMuNzQ4LTEuMTEzIDUuNDU1LTEuNzQ0IDMuMTkyLTMuMDA2IDQuNDUzYTE0LjI4IDE0LjI4IDAgMCAxLTQuNDUzIDMuMDA2Yy0xLjY3Ljc0Mi0zLjQ3IDEuMTEzLTUuNCAxLjExM3MtMy43NDgtLjM3MS01LjQ1NS0xLjExM2ExNC4yOCAxNC4yOCAwIDAgMS00LjQ1My0zLjAwNiAxNC4yOCAxNC4yOCAwIDAgMS0zLjAwNi00LjQ1M0MtLjEyOSAxNy4yMi0uNSAxNS40MDItLjUgMTMuNDcyem0xNi44MTEgNC4yMzFhNi42NSA2LjY1IDAgMCAxIDMuMjg0LjgzNWMxLjAwMi41MiAxLjgxOCAxLjI0MyAyLjQ0OSAyLjE3MWExMC4xNCAxMC4xNCAwIDAgMCAxLjk0OC0zLjI4NGMuNDgyLTEuMjI1LjcyNC0yLjU0Mi43MjQtMy45NTIgMC0xLjU1OS0uMjk3LTMuMDA2LS44OTEtNC4zNDItLjU5NC0xLjM3My0xLjM5Mi0yLjU2MS0yLjM5NC0zLjU2M3MtMi4xOS0xLjgtMy41NjMtMi4zOTRjLTEuMzM2LS41OTQtMi43ODMtLjg5MS00LjM0Mi0uODkxcy0zLjAyNC4yOTctNC4zOTguODkxYy0xLjMzNi41OTQtMi41MjQgMS4zOTItMy41NjMgMi4zOTRBMTEuMzUgMTEuMzUgMCAwIDAgMy4xNzQgOS4xM2MtLjU5NCAxLjMzNi0uODkxIDIuNzgzLS44OTEgNC4zNDIgMCAxLjQxLjIyMyAyLjcyOC42NjggMy45NTIuNDgyIDEuMjI1IDEuMTUgMi4zMTkgMi4wMDQgMy4yODQuNjMxLS45MjggMS40NDctMS42NTEgMi40NDktMi4xNzFhNi42NSA2LjY1IDAgMCAxIDMuMjg0LS44MzV6bTIuNzgzLTcuMDE0YTUuNjggNS42OCAwIDAgMS0uNDQ1IDIuMjI3IDUuODcgNS44NyAwIDAgMS0xLjIyNSAxLjc4MWMtLjQ4Mi40ODItMS4wNTguODcyLTEuNzI2IDEuMTY5cy0xLjM5Mi40NDUtMi4xNzEuNDQ1YTUuNjggNS42OCAwIDAgMS0yLjIyNy0uNDQ1IDYuNDQgNi40NCAwIDAgMS0xLjc4MS0xLjE2OSA2LjQ0IDYuNDQgMCAwIDEtMS4xNjktMS43ODEgNS42OCA1LjY4IDAgMCAxLS40NDUtMi4yMjdjMC0uNzc5LjE0OC0xLjUwMy40NDUtMi4xNzFBNi40NCA2LjQ0IDAgMCAxIDkuNTIgNi43MzdhNS44NyA1Ljg3IDAgMCAxIDEuNzgxLTEuMjI1IDUuNjggNS42OCAwIDAgMSAyLjIyNy0uNDQ1Yy43NzkgMCAxLjUwMy4xNDggMi4xNzEuNDQ1czEuMjQzLjcwNSAxLjcyNiAxLjIyNWE1Ljg3IDUuODcgMCAwIDEgMS4yMjUgMS43ODFjLjI5Ny42NjguNDQ1IDEuMzkyLjQ0NSAyLjE3MXptLTIuNzgzIDBjMC0uNzc5LS4yNzgtMS40MjktLjgzNS0xLjk0OC0uNTU3LS41NTctMS4yMDYtLjgzNS0xLjk0OC0uODM1YTIuNzMgMi43MyAwIDAgMC0yLjAwNC44MzVjLS41NTcuNTItLjgzNSAxLjE2OS0uODM1IDEuOTQ4YTIuNzMgMi43MyAwIDAgMCAuODM1IDIuMDA0Yy41NTcuNTIgMS4yMjUuNzc5IDIuMDA0Ljc3OS43NDIgMCAxLjM5Mi0uMjYgMS45NDgtLjc3OWEyLjczIDIuNzMgMCAwIDAgLjgzNS0yLjAwNHpNNy4wNzEgMjIuNjU3Yy44OTEuNjMxIDEuODc0IDEuMTMyIDIuOTUgMS41MDMgMS4xMTMuMzcxIDIuMjgyLjU1NyAzLjUwNy41NTcgMS4xODggMCAyLjMxOS0uMTg2IDMuMzk2LS41NTcgMS4xMTMtLjM3MSAyLjExNS0uODcyIDMuMDA2LTEuNTAzLS4zNzEtLjY2OC0uODkxLTEuMTg4LTEuNTU5LTEuNTU5LS42MzEtLjQwOC0xLjMxNy0uNjEyLTIuMDYtLjYxMmgtNS42MjJjLS43NDIgMC0xLjQ0Ny4yMDQtMi4xMTUuNjEyLS42MzEuMzcxLTEuMTMyLjg5MS0xLjUwMyAxLjU1OXoiLz4mI3hhOzwvc3ZnPg==;" parent="1" vertex="1">
          <mxGeometry x="69.67000000000002" y="1627.4099999999999" width="21" height="21" as="geometry" />
        </mxCell>
        <mxCell id="a5ctUV8vy-N1pXA6XF1Q-61" value="&lt;font face=&quot;arial&quot;&gt;User from IAS&lt;/font&gt;" style="text;html=1;align=center;verticalAlign=middle;resizable=0;points=[[0,0.5,0,0,0],[0.5,0,0,0,0],[0.5,1,0,0,0],[1,0.5,0,0,0]];autosize=1;strokeColor=none;fillColor=none;fontSize=12;fontColor=#000000;fontFamily=Helvetica;" parent="1" vertex="1">
          <mxGeometry x="85.53" y="1622.4099999999999" width="100" height="30" as="geometry" />
        </mxCell>
        <mxCell id="a5ctUV8vy-N1pXA6XF1Q-62" value="End User" style="shape=image;editableCssRules=.*;verticalLabelPosition=bottom;labelBackgroundColor=none;verticalAlign=top;aspect=fixed;imageAspect=0;image=data:image/svg+xml,PHN2ZyB4bWxucz0iaHR0cDovL3d3dy53My5vcmcvMjAwMC9zdmciIHZpZXdCb3g9Ii0wLjUgLTAuNSAyOCAyOCIgaGVpZ2h0PSIyOCIgd2lkdGg9IjI4Ij4mI3hhOwkgIDxzdHlsZSB0eXBlPSJ0ZXh0L2NzcyI+LnN0MCB7IHN0b3AtY29sb3I6IHJnYig5MSwgMTE1LCAxMzkpOyB9IC5zdDEgeyBzdG9wLWNvbG9yOiByZ2IoMzQsIDUzLCA3Mik7IH0gPC9zdHlsZT4mI3hhOwk8ZGVmcz4mI3hhOwkJPGxpbmVhckdyYWRpZW50IGdyYWRpZW50VW5pdHM9InVzZXJTcGFjZU9uVXNlIiB5Mj0iMjUuMzA5IiB4Mj0iMjMuNDU0IiB5MT0iMy40NzQiIHgxPSIyLjAzOSIgaWQ9IkEiPiYjeGE7CQkJPHN0b3AgY2xhc3M9InN0MCIvPiYjeGE7CQkJPHN0b3AgY2xhc3M9InN0MSIgb2Zmc2V0PSIxIi8+JiN4YTsJCTwvbGluZWFyR3JhZGllbnQ+JiN4YTsJPC9kZWZzPiYjeGE7CTxwYXRoIGZpbGw9InVybCgjQSkiIGQ9Ik0tLjUgMTMuNDcyYzAtMS45My4zNzEtMy43MyAxLjExMy01LjQuNzQyLTEuNzA3IDEuNzQ0LTMuMTkyIDMuMDA2LTQuNDUzUzYuMzY1IDEuMzU2IDguMDczLjYxMyAxMS41OTgtLjUgMTMuNTI4LS41czMuNzMuMzcxIDUuNCAxLjExM2MxLjcwNy43NDIgMy4xOTIgMS43NDQgNC40NTMgMy4wMDZzMi4yNjQgMi43NDYgMy4wMDYgNC40NTNjLjc0MiAxLjY3IDEuMTEzIDMuNDcgMS4xMTMgNS40cy0uMzcxIDMuNzQ4LTEuMTEzIDUuNDU1LTEuNzQ0IDMuMTkyLTMuMDA2IDQuNDUzYTE0LjI4IDE0LjI4IDAgMCAxLTQuNDUzIDMuMDA2Yy0xLjY3Ljc0Mi0zLjQ3IDEuMTEzLTUuNCAxLjExM3MtMy43NDgtLjM3MS01LjQ1NS0xLjExM2ExNC4yOCAxNC4yOCAwIDAgMS00LjQ1My0zLjAwNiAxNC4yOCAxNC4yOCAwIDAgMS0zLjAwNi00LjQ1M0MtLjEyOSAxNy4yMi0uNSAxNS40MDItLjUgMTMuNDcyem0xNi44MTEgNC4yMzFhNi42NSA2LjY1IDAgMCAxIDMuMjg0LjgzNWMxLjAwMi41MiAxLjgxOCAxLjI0MyAyLjQ0OSAyLjE3MWExMC4xNCAxMC4xNCAwIDAgMCAxLjk0OC0zLjI4NGMuNDgyLTEuMjI1LjcyNC0yLjU0Mi43MjQtMy45NTIgMC0xLjU1OS0uMjk3LTMuMDA2LS44OTEtNC4zNDItLjU5NC0xLjM3My0xLjM5Mi0yLjU2MS0yLjM5NC0zLjU2M3MtMi4xOS0xLjgtMy41NjMtMi4zOTRjLTEuMzM2LS41OTQtMi43ODMtLjg5MS00LjM0Mi0uODkxcy0zLjAyNC4yOTctNC4zOTguODkxYy0xLjMzNi41OTQtMi41MjQgMS4zOTItMy41NjMgMi4zOTRBMTEuMzUgMTEuMzUgMCAwIDAgMy4xNzQgOS4xM2MtLjU5NCAxLjMzNi0uODkxIDIuNzgzLS44OTEgNC4zNDIgMCAxLjQxLjIyMyAyLjcyOC42NjggMy45NTIuNDgyIDEuMjI1IDEuMTUgMi4zMTkgMi4wMDQgMy4yODQuNjMxLS45MjggMS40NDctMS42NTEgMi40NDktMi4xNzFhNi42NSA2LjY1IDAgMCAxIDMuMjg0LS44MzV6bTIuNzgzLTcuMDE0YTUuNjggNS42OCAwIDAgMS0uNDQ1IDIuMjI3IDUuODcgNS44NyAwIDAgMS0xLjIyNSAxLjc4MWMtLjQ4Mi40ODItMS4wNTguODcyLTEuNzI2IDEuMTY5cy0xLjM5Mi40NDUtMi4xNzEuNDQ1YTUuNjggNS42OCAwIDAgMS0yLjIyNy0uNDQ1IDYuNDQgNi40NCAwIDAgMS0xLjc4MS0xLjE2OSA2LjQ0IDYuNDQgMCAwIDEtMS4xNjktMS43ODEgNS42OCA1LjY4IDAgMCAxLS40NDUtMi4yMjdjMC0uNzc5LjE0OC0xLjUwMy40NDUtMi4xNzFBNi40NCA2LjQ0IDAgMCAxIDkuNTIgNi43MzdhNS44NyA1Ljg3IDAgMCAxIDEuNzgxLTEuMjI1IDUuNjggNS42OCAwIDAgMSAyLjIyNy0uNDQ1Yy43NzkgMCAxLjUwMy4xNDggMi4xNzEuNDQ1czEuMjQzLjcwNSAxLjcyNiAxLjIyNWE1Ljg3IDUuODcgMCAwIDEgMS4yMjUgMS43ODFjLjI5Ny42NjguNDQ1IDEuMzkyLjQ0NSAyLjE3MXptLTIuNzgzIDBjMC0uNzc5LS4yNzgtMS40MjktLjgzNS0xLjk0OC0uNTU3LS41NTctMS4yMDYtLjgzNS0xLjk0OC0uODM1YTIuNzMgMi43MyAwIDAgMC0yLjAwNC44MzVjLS41NTcuNTItLjgzNSAxLjE2OS0uODM1IDEuOTQ4YTIuNzMgMi43MyAwIDAgMCAuODM1IDIuMDA0Yy41NTcuNTIgMS4yMjUuNzc5IDIuMDA0Ljc3OS43NDIgMCAxLjM5Mi0uMjYgMS45NDgtLjc3OWEyLjczIDIuNzMgMCAwIDAgLjgzNS0yLjAwNHpNNy4wNzEgMjIuNjU3Yy44OTEuNjMxIDEuODc0IDEuMTMyIDIuOTUgMS41MDMgMS4xMTMuMzcxIDIuMjgyLjU1NyAzLjUwNy41NTcgMS4xODggMCAyLjMxOS0uMTg2IDMuMzk2LS41NTcgMS4xMTMtLjM3MSAyLjExNS0uODcyIDMuMDA2LTEuNTAzLS4zNzEtLjY2OC0uODkxLTEuMTg4LTEuNTU5LTEuNTU5LS42MzEtLjQwOC0xLjMxNy0uNjEyLTIuMDYtLjYxMmgtNS42MjJjLS43NDIgMC0xLjQ0Ny4yMDQtMi4xMTUuNjEyLS42MzEuMzcxLTEuMTMyLjg5MS0xLjUwMyAxLjU1OXoiLz4mI3hhOzwvc3ZnPg==;fontStyle=0" parent="1" vertex="1">
          <mxGeometry x="38.91000000000001" y="168" width="28" height="28" as="geometry" />
        </mxCell>
        <mxCell id="a5ctUV8vy-N1pXA6XF1Q-63" value="Application&amp;nbsp;&lt;div&gt;Clients&lt;/div&gt;&lt;div&gt;&lt;font style=&quot;font-size: 10px;&quot;&gt;Mobile or Desktop&lt;/font&gt;&lt;/div&gt;" style="shape=image;editableCssRules=.*;verticalLabelPosition=bottom;labelBackgroundColor=none;verticalAlign=top;aspect=fixed;imageAspect=0;html=1;image=data:image/svg+xml,PHN2ZyB4bWxucz0iaHR0cDovL3d3dy53My5vcmcvMjAwMC9zdmciIHZpZXdCb3g9Ii0wLjUgLTAuNSAyOCAyMy4zNDMiIGhlaWdodD0iMjMuMzQzIiB3aWR0aD0iMjgiPiYjeGE7CSAgPHN0eWxlIHR5cGU9InRleHQvY3NzIj4uc3QwIHsgc3RvcC1jb2xvcjogcmdiKDkxLCAxMTUsIDEzOSk7IH0gLnN0MSB7IHN0b3AtY29sb3I6IHJnYigzNCwgNTMsIDcyKTsgfSA8L3N0eWxlPiYjeGE7CTxkZWZzPiYjeGE7CQk8bGluZWFyR3JhZGllbnQgZ3JhZGllbnRVbml0cz0idXNlclNwYWNlT25Vc2UiIHkyPSIyNC4yMTciIHgyPSIxOS41NCIgeTE9IjIuODEzIiB4MT0iMi4wMzkiIGlkPSJBIj4mI3hhOwkJCTxzdG9wIGNsYXNzPSJzdDAiLz4mI3hhOwkJCTxzdG9wIGNsYXNzPSJzdDEiIG9mZnNldD0iMSIvPiYjeGE7CQk8L2xpbmVhckdyYWRpZW50PiYjeGE7CTwvZGVmcz4mI3hhOwk8cGF0aCBmaWxsPSJ1cmwoI0EpIiBkPSJNMTMuNTI3IDE4LjE4NnYyLjNoMS4xNWMuNzY4IDAgMS4xNS40MDMgMS4xNSAxLjIwNi4wMDQuMTUyLS4wMjIuMzA0LS4wNzkuNDQ1cy0uMTQxLjI3LS4yNDkuMzc3Yy0uMTgyLjIxNy0uNDU2LjMyOC0uODIyLjMyOEg3LjY2NGMtLjE1Mi4wMDQtLjMwMy0uMDIzLS40NDQtLjA4cy0uMjY5LS4xNDItLjM3Ni0uMjUtLjE5My0uMjM1LS4yNS0uMzc2LS4wODQtLjI5Mi0uMDgtLjQ0NGMwLS4zNjYuMTEtLjY1Ny4zMy0uODc3LjEwNy0uMTA4LjIzNS0uMTkzLjM3Ni0uMjVzLjI5Mi0uMDg0LjQ0NC0uMDhoMy41MDd2LTIuM0gzLjAwN2EzLjUzIDMuNTMgMCAwIDEtMi41MjEtLjk4NyAzLjUzIDMuNTMgMCAwIDEtLjk4NS0yLjUxOVYzLjAwOWMwLS45ODcuMzMtMS44MDkuOTg3LTIuNDY3LjMyNy0uMzM2LjcxOS0uNjAyIDEuMTUyLS43ODJzLjg5OS0uMjY4IDEuMzY4LS4yNmgxOC42ODNBMy4yNSAzLjI1IDAgMCAxIDI0LjE1Ni41NDJjLjY5NC42NTggMS4wNDEgMS40OCAxLjA0MSAyLjQ2NXYyLjM1NmMuMDA0LjE1Mi0uMDIyLjMwNC0uMDc5LjQ0NXMtLjE0MS4yNy0uMjQ5LjM3N2MtLjExNi4xMTItLjI1NC4xOTgtLjQwNC4yNTVzLS4zMTEuMDgyLS40NzIuMDc1Yy0uMTUyLjAwNC0uMzA0LS4wMjMtLjQ0NS0uMDhzLS4yNy0uMTQyLS4zNzctLjI1LS4xOTMtLjIzNi0uMjUtLjM3Ny0uMDg0LS4yOTMtLjA4LS40NDVWMy4wMDljMC0uNzY4LS4zODItMS4xNTItMS4xNS0xLjE1MkgzLjAwN2MtLjc2OCAwLTEuMTUuMzg0LTEuMTUgMS4xNXYxMS42NzJjMCAuNzY2LjM4MiAxLjE1IDEuMTUgMS4xNWgxMS42N2MuNzY4IDAgMS4xNS40MDMgMS4xNSAxLjIwNi4wMDQuMTUyLS4wMjMuMzAzLS4wNzkuNDQ0cy0uMTQxLjI2OS0uMjQ5LjM3NmMtLjE4Mi4yMTktLjQ1Ni4zMy0uODIyLjMzem0xMi44MjItOS4zN2MuNzY2IDAgMS4xNS40MDMgMS4xNSAxLjIwNnYxMS42N2MuMDA0LjE1Mi0uMDIzLjMwNC0uMDguNDQ1cy0uMTQyLjI3LS4yNS4zNzdjLS4xODIuMjE3LS40NTYuMzI4LS44MjIuMzI4aC03LjAxM2MtLjE1Mi4wMDQtLjMwMy0uMDIzLS40NDQtLjA4cy0uMjY5LS4xNDItLjM3Ni0uMjUtLjE5My0uMjM1LS4yNS0uMzc2LS4wODQtLjI5Mi0uMDgtLjQ0NHYtMTEuNjdjMC0uMzY2LjExLS42NTcuMzMtLjg3Ny4xMDctLjEwOC4yMzYtLjE5My4zNzctLjI1cy4yOTMtLjA4NC40NDUtLjA4em0tNS44MDkgMi4zNTZ2OC4xNjNoNC42NTd2LTguMTY0eiIvPiYjeGE7PC9zdmc+;" parent="1" vertex="1">
          <mxGeometry x="38.91000000000001" y="258" width="28" height="25" as="geometry" />
        </mxCell>
        <mxCell id="a5ctUV8vy-N1pXA6XF1Q-64" value="" style="edgeStyle=none;endArrow=blockThin;verticalAlign=top;labelBackgroundColor=none;endSize=6;html=1;rounded=0;targetPerimeterSpacing=10;sourcePerimeterSpacing=30;endFill=1;strokeColor=#475E75;" parent="1" source="a5ctUV8vy-N1pXA6XF1Q-62" target="a5ctUV8vy-N1pXA6XF1Q-63" edge="1">
          <mxGeometry relative="1" as="geometry" />
        </mxCell>
        <mxCell id="a5ctUV8vy-N1pXA6XF1Q-65" value="" style="edgeStyle=none;endArrow=blockThin;verticalAlign=top;labelBackgroundColor=none;endSize=6;html=1;rounded=0;targetPerimeterSpacing=10;sourcePerimeterSpacing=10;endFill=1;strokeColor=#475E75;" parent="1" source="a5ctUV8vy-N1pXA6XF1Q-63" edge="1">
          <mxGeometry relative="1" as="geometry">
            <mxPoint x="120" y="271" as="targetPoint" />
          </mxGeometry>
        </mxCell>
        <mxCell id="a5ctUV8vy-N1pXA6XF1Q-67" value="" style="shape=image;editableCssRules=.*;verticalLabelPosition=bottom;labelBackgroundColor=default;verticalAlign=top;aspect=fixed;imageAspect=0;image=data:image/svg+xml,PHN2ZyB4bWxucz0iaHR0cDovL3d3dy53My5vcmcvMjAwMC9zdmciIHZpZXdCb3g9Ii0wLjUgLTAuNSAyOCAyOCIgaGVpZ2h0PSIyOCIgd2lkdGg9IjI4Ij4mI3hhOwkgIDxzdHlsZSB0eXBlPSJ0ZXh0L2NzcyI+LnN0MCB7IHN0b3AtY29sb3I6IHJnYig5MSwgMTE1LCAxMzkpOyB9IC5zdDEgeyBzdG9wLWNvbG9yOiByZ2IoMzQsIDUzLCA3Mik7IH0gPC9zdHlsZT4mI3hhOwk8ZGVmcz4mI3hhOwkJPGxpbmVhckdyYWRpZW50IGdyYWRpZW50VW5pdHM9InVzZXJTcGFjZU9uVXNlIiB5Mj0iMjUuMzA5IiB4Mj0iMjMuNDU0IiB5MT0iMy40NzQiIHgxPSIyLjAzOSIgaWQ9IkEiPiYjeGE7CQkJPHN0b3AgY2xhc3M9InN0MCIvPiYjeGE7CQkJPHN0b3AgY2xhc3M9InN0MSIgb2Zmc2V0PSIxIi8+JiN4YTsJCTwvbGluZWFyR3JhZGllbnQ+JiN4YTsJPC9kZWZzPiYjeGE7CTxwYXRoIGZpbGw9InVybCgjQSkiIGQ9Ik0tLjUgMTMuNDcyYzAtMS45My4zNzEtMy43MyAxLjExMy01LjQuNzQyLTEuNzA3IDEuNzQ0LTMuMTkyIDMuMDA2LTQuNDUzUzYuMzY1IDEuMzU2IDguMDczLjYxMyAxMS41OTgtLjUgMTMuNTI4LS41czMuNzMuMzcxIDUuNCAxLjExM2MxLjcwNy43NDIgMy4xOTIgMS43NDQgNC40NTMgMy4wMDZzMi4yNjQgMi43NDYgMy4wMDYgNC40NTNjLjc0MiAxLjY3IDEuMTEzIDMuNDcgMS4xMTMgNS40cy0uMzcxIDMuNzQ4LTEuMTEzIDUuNDU1LTEuNzQ0IDMuMTkyLTMuMDA2IDQuNDUzYTE0LjI4IDE0LjI4IDAgMCAxLTQuNDUzIDMuMDA2Yy0xLjY3Ljc0Mi0zLjQ3IDEuMTEzLTUuNCAxLjExM3MtMy43NDgtLjM3MS01LjQ1NS0xLjExM2ExNC4yOCAxNC4yOCAwIDAgMS00LjQ1My0zLjAwNiAxNC4yOCAxNC4yOCAwIDAgMS0zLjAwNi00LjQ1M0MtLjEyOSAxNy4yMi0uNSAxNS40MDItLjUgMTMuNDcyem0xNi44MTEgNC4yMzFhNi42NSA2LjY1IDAgMCAxIDMuMjg0LjgzNWMxLjAwMi41MiAxLjgxOCAxLjI0MyAyLjQ0OSAyLjE3MWExMC4xNCAxMC4xNCAwIDAgMCAxLjk0OC0zLjI4NGMuNDgyLTEuMjI1LjcyNC0yLjU0Mi43MjQtMy45NTIgMC0xLjU1OS0uMjk3LTMuMDA2LS44OTEtNC4zNDItLjU5NC0xLjM3My0xLjM5Mi0yLjU2MS0yLjM5NC0zLjU2M3MtMi4xOS0xLjgtMy41NjMtMi4zOTRjLTEuMzM2LS41OTQtMi43ODMtLjg5MS00LjM0Mi0uODkxcy0zLjAyNC4yOTctNC4zOTguODkxYy0xLjMzNi41OTQtMi41MjQgMS4zOTItMy41NjMgMi4zOTRBMTEuMzUgMTEuMzUgMCAwIDAgMy4xNzQgOS4xM2MtLjU5NCAxLjMzNi0uODkxIDIuNzgzLS44OTEgNC4zNDIgMCAxLjQxLjIyMyAyLjcyOC42NjggMy45NTIuNDgyIDEuMjI1IDEuMTUgMi4zMTkgMi4wMDQgMy4yODQuNjMxLS45MjggMS40NDctMS42NTEgMi40NDktMi4xNzFhNi42NSA2LjY1IDAgMCAxIDMuMjg0LS44MzV6bTIuNzgzLTcuMDE0YTUuNjggNS42OCAwIDAgMS0uNDQ1IDIuMjI3IDUuODcgNS44NyAwIDAgMS0xLjIyNSAxLjc4MWMtLjQ4Mi40ODItMS4wNTguODcyLTEuNzI2IDEuMTY5cy0xLjM5Mi40NDUtMi4xNzEuNDQ1YTUuNjggNS42OCAwIDAgMS0yLjIyNy0uNDQ1IDYuNDQgNi40NCAwIDAgMS0xLjc4MS0xLjE2OSA2LjQ0IDYuNDQgMCAwIDEtMS4xNjktMS43ODEgNS42OCA1LjY4IDAgMCAxLS40NDUtMi4yMjdjMC0uNzc5LjE0OC0xLjUwMy40NDUtMi4xNzFBNi40NCA2LjQ0IDAgMCAxIDkuNTIgNi43MzdhNS44NyA1Ljg3IDAgMCAxIDEuNzgxLTEuMjI1IDUuNjggNS42OCAwIDAgMSAyLjIyNy0uNDQ1Yy43NzkgMCAxLjUwMy4xNDggMi4xNzEuNDQ1czEuMjQzLjcwNSAxLjcyNiAxLjIyNWE1Ljg3IDUuODcgMCAwIDEgMS4yMjUgMS43ODFjLjI5Ny42NjguNDQ1IDEuMzkyLjQ0NSAyLjE3MXptLTIuNzgzIDBjMC0uNzc5LS4yNzgtMS40MjktLjgzNS0xLjk0OC0uNTU3LS41NTctMS4yMDYtLjgzNS0xLjk0OC0uODM1YTIuNzMgMi43MyAwIDAgMC0yLjAwNC44MzVjLS41NTcuNTItLjgzNSAxLjE2OS0uODM1IDEuOTQ4YTIuNzMgMi43MyAwIDAgMCAuODM1IDIuMDA0Yy41NTcuNTIgMS4yMjUuNzc5IDIuMDA0Ljc3OS43NDIgMCAxLjM5Mi0uMjYgMS45NDgtLjc3OWEyLjczIDIuNzMgMCAwIDAgLjgzNS0yLjAwNHpNNy4wNzEgMjIuNjU3Yy44OTEuNjMxIDEuODc0IDEuMTMyIDIuOTUgMS41MDMgMS4xMTMuMzcxIDIuMjgyLjU1NyAzLjUwNy41NTcgMS4xODggMCAyLjMxOS0uMTg2IDMuMzk2LS41NTcgMS4xMTMtLjM3MSAyLjExNS0uODcyIDMuMDA2LTEuNTAzLS4zNzEtLjY2OC0uODkxLTEuMTg4LTEuNTU5LTEuNTU5LS42MzEtLjQwOC0xLjMxNy0uNjEyLTIuMDYtLjYxMmgtNS42MjJjLS43NDIgMC0xLjQ0Ny4yMDQtMi4xMTUuNjEyLS42MzEuMzcxLTEuMTMyLjg5MS0xLjUwMyAxLjU1OXoiLz4mI3hhOzwvc3ZnPg==;" parent="1" vertex="1">
          <mxGeometry x="95.26000000000008" y="1567" width="21.82" height="21.82" as="geometry" />
        </mxCell>
        <mxCell id="a5ctUV8vy-N1pXA6XF1Q-68" value="&lt;div style=&quot;&quot;&gt;&lt;span style=&quot;font-family: arial; font-size: x-small; background-color: initial;&quot;&gt;&lt;font&gt;John.Doe@alba.info&lt;/font&gt;&lt;/span&gt;&lt;/div&gt;" style="text;html=1;align=center;verticalAlign=middle;resizable=0;points=[[0,0.5,0,0,0],[0.5,0,0,0,0],[0.5,1,0,0,0],[1,0.5,0,0,0]];autosize=1;strokeColor=none;fillColor=none;fontSize=12;fontColor=#556B82;fontFamily=Helvetica;" parent="1" vertex="1">
          <mxGeometry x="53.26000000000008" y="1540" width="110" height="30" as="geometry" />
        </mxCell>
        <mxCell id="a5ctUV8vy-N1pXA6XF1Q-34" value="OIDC" style="rounded=1;whiteSpace=wrap;html=1;arcSize=50;strokeColor=#188918;fillColor=#f5fae5;fontColor=#266f3a;strokeWidth=1.5;fontSize=10;fontStyle=1" parent="1" vertex="1">
          <mxGeometry x="254.98344827586206" y="2022.2618400436863" width="58.857931034482746" height="16.01814484672803" as="geometry" />
        </mxCell>
        <mxCell id="a5ctUV8vy-N1pXA6XF1Q-35" value="" style="rounded=0;orthogonalLoop=1;jettySize=auto;html=1;fontSize=18;strokeColor=#188918;fontFamily=Helvetica;fontColor=default;targetPerimeterSpacing=15;endSize=4;startSize=4;endArrow=none;endFill=0;strokeWidth=1.5;startArrow=none;startFill=0;entryX=0.467;entryY=-0.042;entryDx=0;entryDy=0;entryPerimeter=0;" parent="1" target="a5ctUV8vy-N1pXA6XF1Q-34" edge="1">
          <mxGeometry relative="1" as="geometry">
            <mxPoint x="282.3931034482759" y="1998.7057446808512" as="sourcePoint" />
            <mxPoint x="281.79973975276516" y="2018.2944976667877" as="targetPoint" />
          </mxGeometry>
        </mxCell>
        <mxCell id="a5ctUV8vy-N1pXA6XF1Q-38" value="&lt;font size=&quot;1&quot; color=&quot;#5d36ff&quot;&gt;&lt;b&gt;Role&lt;/b&gt;&lt;/font&gt;" style="rounded=1;whiteSpace=wrap;html=1;arcSize=50;strokeColor=#5D36FF;fillColor=#f1ecff;strokeWidth=1.5;" parent="1" vertex="1">
          <mxGeometry x="130.84551724137933" y="1899.4637234042552" width="101.37931034482756" height="23.351063829787236" as="geometry" />
        </mxCell>
        <mxCell id="a5ctUV8vy-N1pXA6XF1Q-39" value="&lt;font size=&quot;1&quot; color=&quot;#5d36ff&quot;&gt;&lt;b&gt;Role Binding&lt;/b&gt;&lt;/font&gt;" style="rounded=1;whiteSpace=wrap;html=1;arcSize=50;strokeColor=#5D36FF;fillColor=#f1ecff;strokeWidth=1.5;" parent="1" vertex="1">
          <mxGeometry x="251.39172413793105" y="1863.85335106383" width="148.66758620689652" height="22.183510638297875" as="geometry" />
        </mxCell>
        <mxCell id="a5ctUV8vy-N1pXA6XF1Q-40" value="&lt;font color=&quot;#475e75&quot; size=&quot;1&quot;&gt;&lt;b style=&quot;&quot;&gt;User&lt;/b&gt;&lt;/font&gt;" style="rounded=1;whiteSpace=wrap;html=1;arcSize=50;strokeColor=#475e75;fillColor=#f5f6f7;strokeWidth=1.5;" parent="1" vertex="1">
          <mxGeometry x="130.8455172413792" y="1864.4371276595743" width="61.24137931034481" height="21.01595744680851" as="geometry" />
        </mxCell>
        <mxCell id="a5ctUV8vy-N1pXA6XF1Q-41" value="&lt;font size=&quot;1&quot; color=&quot;#5d36ff&quot;&gt;&lt;b&gt;Group&lt;/b&gt;&lt;/font&gt;" style="rounded=1;whiteSpace=wrap;html=1;arcSize=50;strokeColor=#5D36FF;fillColor=#f1ecff;strokeWidth=1.5;" parent="1" vertex="1">
          <mxGeometry x="253.04689655172413" y="1899.4637234042552" width="101.37931034482756" height="23.351063829787236" as="geometry" />
        </mxCell>
        <mxCell id="a5ctUV8vy-N1pXA6XF1Q-42" value="&lt;font color=&quot;#188918&quot; size=&quot;1&quot;&gt;&lt;b style=&quot;&quot;&gt;Authorize&lt;/b&gt;&lt;/font&gt;" style="rounded=1;whiteSpace=wrap;html=1;arcSize=50;strokeColor=#188918;fillColor=#f5fae5;fontColor=#266f3a;strokeWidth=1.5;" parent="1" vertex="1">
          <mxGeometry x="122.35448275862066" y="1930.9876595744681" width="119.17241379310342" height="16.929521276595747" as="geometry" />
        </mxCell>
        <mxCell id="a5ctUV8vy-N1pXA6XF1Q-43" value="&lt;font color=&quot;#1d2d3e&quot; size=&quot;1&quot; face=&quot;arial&quot;&gt;&lt;b style=&quot;font-size: 14px;&quot;&gt;RBAC&lt;/b&gt;&lt;/font&gt;" style="text;html=1;align=left;verticalAlign=middle;resizable=0;points=[];autosize=1;strokeColor=none;fillColor=none;fontSize=12;fontColor=default;fontFamily=Helvetica;" parent="1" vertex="1">
          <mxGeometry x="214.53103448275854" y="1829.4105319148935" width="60" height="30" as="geometry" />
        </mxCell>
        <mxCell id="a5ctUV8vy-N1pXA6XF1Q-46" value="" style="shape=image;editableCssRules=.*;verticalLabelPosition=bottom;labelBackgroundColor=default;verticalAlign=top;aspect=fixed;imageAspect=0;image=data:image/svg+xml,PHN2ZyB4bWxucz0iaHR0cDovL3d3dy53My5vcmcvMjAwMC9zdmciIHZpZXdCb3g9Ii0wLjUgLTAuNSAyOCAyOCIgaGVpZ2h0PSIyOCIgd2lkdGg9IjI4Ij4mI3hhOwkgIDxzdHlsZSB0eXBlPSJ0ZXh0L2NzcyI+JiN4YTsJCS5zdDB7c3RvcC1jb2xvcjojMDBjZWFjO30mI3hhOwkJLnN0MXtzdG9wLWNvbG9yOiMwNzgzOGY7fSYjeGE7CSAgPC9zdHlsZT4mI3hhOwk8ZGVmcz4mI3hhOwkJPGxpbmVhckdyYWRpZW50IGdyYWRpZW50VW5pdHM9InVzZXJTcGFjZU9uVXNlIiB5Mj0iMjUuMzA5IiB4Mj0iMjMuNDU0IiB5MT0iMy40NzQiIHgxPSIyLjAzOSIgaWQ9IkEiPiYjeGE7CQkJPHN0b3AgY2xhc3M9InN0MCIvPiYjeGE7CQkJPHN0b3AgY2xhc3M9InN0MSIgb2Zmc2V0PSIxIi8+JiN4YTsJCTwvbGluZWFyR3JhZGllbnQ+JiN4YTsJPC9kZWZzPiYjeGE7CTxwYXRoIGZpbGw9InVybCgjQSkiIGQ9Ik0tLjUgMTMuNDcyYzAtMS45My4zNzEtMy43MyAxLjExMy01LjQuNzQyLTEuNzA3IDEuNzQ0LTMuMTkyIDMuMDA2LTQuNDUzUzYuMzY1IDEuMzU2IDguMDczLjYxMyAxMS41OTgtLjUgMTMuNTI4LS41czMuNzMuMzcxIDUuNCAxLjExM2MxLjcwNy43NDIgMy4xOTIgMS43NDQgNC40NTMgMy4wMDZzMi4yNjQgMi43NDYgMy4wMDYgNC40NTNjLjc0MiAxLjY3IDEuMTEzIDMuNDcgMS4xMTMgNS40cy0uMzcxIDMuNzQ4LTEuMTEzIDUuNDU1LTEuNzQ0IDMuMTkyLTMuMDA2IDQuNDUzYTE0LjI4IDE0LjI4IDAgMCAxLTQuNDUzIDMuMDA2Yy0xLjY3Ljc0Mi0zLjQ3IDEuMTEzLTUuNCAxLjExM3MtMy43NDgtLjM3MS01LjQ1NS0xLjExM2ExNC4yOCAxNC4yOCAwIDAgMS00LjQ1My0zLjAwNiAxNC4yOCAxNC4yOCAwIDAgMS0zLjAwNi00LjQ1M0MtLjEyOSAxNy4yMi0uNSAxNS40MDItLjUgMTMuNDcyem0xNi44MTEgNC4yMzFhNi42NSA2LjY1IDAgMCAxIDMuMjg0LjgzNWMxLjAwMi41MiAxLjgxOCAxLjI0MyAyLjQ0OSAyLjE3MWExMC4xNCAxMC4xNCAwIDAgMCAxLjk0OC0zLjI4NGMuNDgyLTEuMjI1LjcyNC0yLjU0Mi43MjQtMy45NTIgMC0xLjU1OS0uMjk3LTMuMDA2LS44OTEtNC4zNDItLjU5NC0xLjM3My0xLjM5Mi0yLjU2MS0yLjM5NC0zLjU2M3MtMi4xOS0xLjgtMy41NjMtMi4zOTRjLTEuMzM2LS41OTQtMi43ODMtLjg5MS00LjM0Mi0uODkxcy0zLjAyNC4yOTctNC4zOTguODkxYy0xLjMzNi41OTQtMi41MjQgMS4zOTItMy41NjMgMi4zOTRBMTEuMzUgMTEuMzUgMCAwIDAgMy4xNzQgOS4xM2MtLjU5NCAxLjMzNi0uODkxIDIuNzgzLS44OTEgNC4zNDIgMCAxLjQxLjIyMyAyLjcyOC42NjggMy45NTIuNDgyIDEuMjI1IDEuMTUgMi4zMTkgMi4wMDQgMy4yODQuNjMxLS45MjggMS40NDctMS42NTEgMi40NDktMi4xNzFhNi42NSA2LjY1IDAgMCAxIDMuMjg0LS44MzV6bTIuNzgzLTcuMDE0YTUuNjggNS42OCAwIDAgMS0uNDQ1IDIuMjI3IDUuODcgNS44NyAwIDAgMS0xLjIyNSAxLjc4MWMtLjQ4Mi40ODItMS4wNTguODcyLTEuNzI2IDEuMTY5cy0xLjM5Mi40NDUtMi4xNzEuNDQ1YTUuNjggNS42OCAwIDAgMS0yLjIyNy0uNDQ1IDYuNDQgNi40NCAwIDAgMS0xLjc4MS0xLjE2OSA2LjQ0IDYuNDQgMCAwIDEtMS4xNjktMS43ODEgNS42OCA1LjY4IDAgMCAxLS40NDUtMi4yMjdjMC0uNzc5LjE0OC0xLjUwMy40NDUtMi4xNzFBNi40NCA2LjQ0IDAgMCAxIDkuNTIgNi43MzdhNS44NyA1Ljg3IDAgMCAxIDEuNzgxLTEuMjI1IDUuNjggNS42OCAwIDAgMSAyLjIyNy0uNDQ1Yy43NzkgMCAxLjUwMy4xNDggMi4xNzEuNDQ1czEuMjQzLjcwNSAxLjcyNiAxLjIyNWE1Ljg3IDUuODcgMCAwIDEgMS4yMjUgMS43ODFjLjI5Ny42NjguNDQ1IDEuMzkyLjQ0NSAyLjE3MXptLTIuNzgzIDBjMC0uNzc5LS4yNzgtMS40MjktLjgzNS0xLjk0OC0uNTU3LS41NTctMS4yMDYtLjgzNS0xLjk0OC0uODM1YTIuNzMgMi43MyAwIDAgMC0yLjAwNC44MzVjLS41NTcuNTItLjgzNSAxLjE2OS0uODM1IDEuOTQ4YTIuNzMgMi43MyAwIDAgMCAuODM1IDIuMDA0Yy41NTcuNTIgMS4yMjUuNzc5IDIuMDA0Ljc3OS43NDIgMCAxLjM5Mi0uMjYgMS45NDgtLjc3OWEyLjczIDIuNzMgMCAwIDAgLjgzNS0yLjAwNHpNNy4wNzEgMjIuNjU3Yy44OTEuNjMxIDEuODc0IDEuMTMyIDIuOTUgMS41MDMgMS4xMTMuMzcxIDIuMjgyLjU1NyAzLjUwNy41NTcgMS4xODggMCAyLjMxOS0uMTg2IDMuMzk2LS41NTcgMS4xMTMtLjM3MSAyLjExNS0uODcyIDMuMDA2LTEuNTAzLS4zNzEtLjY2OC0uODkxLTEuMTg4LTEuNTU5LTEuNTU5LS42MzEtLjQwOC0xLjMxNy0uNjEyLTIuMDYtLjYxMmgtNS42MjJjLS43NDIgMC0xLjQ0Ny4yMDQtMi4xMTUuNjEyLS42MzEuMzcxLTEuMTMyLjg5MS0xLjUwMyAxLjU1OXoiLz4mI3hhOzwvc3ZnPg==;" parent="1" vertex="1">
          <mxGeometry x="127.83310344827586" y="2013.1483776595742" width="21" height="21" as="geometry" />
        </mxCell>
        <mxCell id="a5ctUV8vy-N1pXA6XF1Q-47" value="" style="shape=image;editableCssRules=.*;verticalLabelPosition=bottom;labelBackgroundColor=default;verticalAlign=top;aspect=fixed;imageAspect=0;image=data:image/svg+xml,PHN2ZyB4bWxucz0iaHR0cDovL3d3dy53My5vcmcvMjAwMC9zdmciIHZpZXdCb3g9Ii0wLjUgLTAuNSAyOCAyOCIgaGVpZ2h0PSIyOCIgd2lkdGg9IjI4Ij4mI3hhOwkgIDxzdHlsZSB0eXBlPSJ0ZXh0L2NzcyI+LnN0MCB7IHN0b3AtY29sb3I6IHJnYig5MSwgMTE1LCAxMzkpOyB9IC5zdDEgeyBzdG9wLWNvbG9yOiByZ2IoMzQsIDUzLCA3Mik7IH0gPC9zdHlsZT4mI3hhOwk8ZGVmcz4mI3hhOwkJPGxpbmVhckdyYWRpZW50IGdyYWRpZW50VW5pdHM9InVzZXJTcGFjZU9uVXNlIiB5Mj0iMjUuMzA5IiB4Mj0iMjMuNDU0IiB5MT0iMy40NzQiIHgxPSIyLjAzOSIgaWQ9IkEiPiYjeGE7CQkJPHN0b3AgY2xhc3M9InN0MCIvPiYjeGE7CQkJPHN0b3AgY2xhc3M9InN0MSIgb2Zmc2V0PSIxIi8+JiN4YTsJCTwvbGluZWFyR3JhZGllbnQ+JiN4YTsJPC9kZWZzPiYjeGE7CTxwYXRoIGZpbGw9InVybCgjQSkiIGQ9Ik0tLjUgMTMuNDcyYzAtMS45My4zNzEtMy43MyAxLjExMy01LjQuNzQyLTEuNzA3IDEuNzQ0LTMuMTkyIDMuMDA2LTQuNDUzUzYuMzY1IDEuMzU2IDguMDczLjYxMyAxMS41OTgtLjUgMTMuNTI4LS41czMuNzMuMzcxIDUuNCAxLjExM2MxLjcwNy43NDIgMy4xOTIgMS43NDQgNC40NTMgMy4wMDZzMi4yNjQgMi43NDYgMy4wMDYgNC40NTNjLjc0MiAxLjY3IDEuMTEzIDMuNDcgMS4xMTMgNS40cy0uMzcxIDMuNzQ4LTEuMTEzIDUuNDU1LTEuNzQ0IDMuMTkyLTMuMDA2IDQuNDUzYTE0LjI4IDE0LjI4IDAgMCAxLTQuNDUzIDMuMDA2Yy0xLjY3Ljc0Mi0zLjQ3IDEuMTEzLTUuNCAxLjExM3MtMy43NDgtLjM3MS01LjQ1NS0xLjExM2ExNC4yOCAxNC4yOCAwIDAgMS00LjQ1My0zLjAwNiAxNC4yOCAxNC4yOCAwIDAgMS0zLjAwNi00LjQ1M0MtLjEyOSAxNy4yMi0uNSAxNS40MDItLjUgMTMuNDcyem0xNi44MTEgNC4yMzFhNi42NSA2LjY1IDAgMCAxIDMuMjg0LjgzNWMxLjAwMi41MiAxLjgxOCAxLjI0MyAyLjQ0OSAyLjE3MWExMC4xNCAxMC4xNCAwIDAgMCAxLjk0OC0zLjI4NGMuNDgyLTEuMjI1LjcyNC0yLjU0Mi43MjQtMy45NTIgMC0xLjU1OS0uMjk3LTMuMDA2LS44OTEtNC4zNDItLjU5NC0xLjM3My0xLjM5Mi0yLjU2MS0yLjM5NC0zLjU2M3MtMi4xOS0xLjgtMy41NjMtMi4zOTRjLTEuMzM2LS41OTQtMi43ODMtLjg5MS00LjM0Mi0uODkxcy0zLjAyNC4yOTctNC4zOTguODkxYy0xLjMzNi41OTQtMi41MjQgMS4zOTItMy41NjMgMi4zOTRBMTEuMzUgMTEuMzUgMCAwIDAgMy4xNzQgOS4xM2MtLjU5NCAxLjMzNi0uODkxIDIuNzgzLS44OTEgNC4zNDIgMCAxLjQxLjIyMyAyLjcyOC42NjggMy45NTIuNDgyIDEuMjI1IDEuMTUgMi4zMTkgMi4wMDQgMy4yODQuNjMxLS45MjggMS40NDctMS42NTEgMi40NDktMi4xNzFhNi42NSA2LjY1IDAgMCAxIDMuMjg0LS44MzV6bTIuNzgzLTcuMDE0YTUuNjggNS42OCAwIDAgMS0uNDQ1IDIuMjI3IDUuODcgNS44NyAwIDAgMS0xLjIyNSAxLjc4MWMtLjQ4Mi40ODItMS4wNTguODcyLTEuNzI2IDEuMTY5cy0xLjM5Mi40NDUtMi4xNzEuNDQ1YTUuNjggNS42OCAwIDAgMS0yLjIyNy0uNDQ1IDYuNDQgNi40NCAwIDAgMS0xLjc4MS0xLjE2OSA2LjQ0IDYuNDQgMCAwIDEtMS4xNjktMS43ODEgNS42OCA1LjY4IDAgMCAxLS40NDUtMi4yMjdjMC0uNzc5LjE0OC0xLjUwMy40NDUtMi4xNzFBNi40NCA2LjQ0IDAgMCAxIDkuNTIgNi43MzdhNS44NyA1Ljg3IDAgMCAxIDEuNzgxLTEuMjI1IDUuNjggNS42OCAwIDAgMSAyLjIyNy0uNDQ1Yy43NzkgMCAxLjUwMy4xNDggMi4xNzEuNDQ1czEuMjQzLjcwNSAxLjcyNiAxLjIyNWE1Ljg3IDUuODcgMCAwIDEgMS4yMjUgMS43ODFjLjI5Ny42NjguNDQ1IDEuMzkyLjQ0NSAyLjE3MXptLTIuNzgzIDBjMC0uNzc5LS4yNzgtMS40MjktLjgzNS0xLjk0OC0uNTU3LS41NTctMS4yMDYtLjgzNS0xLjk0OC0uODM1YTIuNzMgMi43MyAwIDAgMC0yLjAwNC44MzVjLS41NTcuNTItLjgzNSAxLjE2OS0uODM1IDEuOTQ4YTIuNzMgMi43MyAwIDAgMCAuODM1IDIuMDA0Yy41NTcuNTIgMS4yMjUuNzc5IDIuMDA0Ljc3OS43NDIgMCAxLjM5Mi0uMjYgMS45NDgtLjc3OWEyLjczIDIuNzMgMCAwIDAgLjgzNS0yLjAwNHpNNy4wNzEgMjIuNjU3Yy44OTEuNjMxIDEuODc0IDEuMTMyIDIuOTUgMS41MDMgMS4xMTMuMzcxIDIuMjgyLjU1NyAzLjUwNy41NTcgMS4xODggMCAyLjMxOS0uMTg2IDMuMzk2LS41NTcgMS4xMTMtLjM3MSAyLjExNS0uODcyIDMuMDA2LTEuNTAzLS4zNzEtLjY2OC0uODkxLTEuMTg4LTEuNTU5LTEuNTU5LS42MzEtLjQwOC0xLjMxNy0uNjEyLTIuMDYtLjYxMmgtNS42MjJjLS43NDIgMC0xLjQ0Ny4yMDQtMi4xMTUuNjEyLS42MzEuMzcxLTEuMTMyLjg5MS0xLjUwMyAxLjU1OXoiLz4mI3hhOzwvc3ZnPg==;" parent="1" vertex="1">
          <mxGeometry x="175.1048275862069" y="2013.1483776595742" width="21" height="21" as="geometry" />
        </mxCell>
        <mxCell id="a5ctUV8vy-N1pXA6XF1Q-29" value="" style="shape=image;editableCssRules=.*;verticalLabelPosition=bottom;labelBackgroundColor=default;verticalAlign=top;aspect=fixed;imageAspect=0;image=data:image/svg+xml,PHN2ZyB4bWxucz0iaHR0cDovL3d3dy53My5vcmcvMjAwMC9zdmciIHZpZXdCb3g9Ii0wLjUgLTAuNSAyOCAyOCIgaGVpZ2h0PSIyOCIgd2lkdGg9IjI4Ij4mI3hhOwkgIDxzdHlsZSB0eXBlPSJ0ZXh0L2NzcyI+LnN0MCB7IHN0b3AtY29sb3I6IHJnYig5MSwgMTE1LCAxMzkpOyB9IC5zdDEgeyBzdG9wLWNvbG9yOiByZ2IoMzQsIDUzLCA3Mik7IH0gPC9zdHlsZT4mI3hhOwk8ZGVmcz4mI3hhOwkJPGxpbmVhckdyYWRpZW50IGdyYWRpZW50VW5pdHM9InVzZXJTcGFjZU9uVXNlIiB5Mj0iMjUuMzA5IiB4Mj0iMjMuNDU0IiB5MT0iMy40NzQiIHgxPSIyLjAzOSIgaWQ9IkEiPiYjeGE7CQkJPHN0b3AgY2xhc3M9InN0MCIvPiYjeGE7CQkJPHN0b3AgY2xhc3M9InN0MSIgb2Zmc2V0PSIxIi8+JiN4YTsJCTwvbGluZWFyR3JhZGllbnQ+JiN4YTsJPC9kZWZzPiYjeGE7CTxwYXRoIGZpbGw9InVybCgjQSkiIGQ9Ik0tLjUgMTMuNDcyYzAtMS45My4zNzEtMy43MyAxLjExMy01LjQuNzQyLTEuNzA3IDEuNzQ0LTMuMTkyIDMuMDA2LTQuNDUzUzYuMzY1IDEuMzU2IDguMDczLjYxMyAxMS41OTgtLjUgMTMuNTI4LS41czMuNzMuMzcxIDUuNCAxLjExM2MxLjcwNy43NDIgMy4xOTIgMS43NDQgNC40NTMgMy4wMDZzMi4yNjQgMi43NDYgMy4wMDYgNC40NTNjLjc0MiAxLjY3IDEuMTEzIDMuNDcgMS4xMTMgNS40cy0uMzcxIDMuNzQ4LTEuMTEzIDUuNDU1LTEuNzQ0IDMuMTkyLTMuMDA2IDQuNDUzYTE0LjI4IDE0LjI4IDAgMCAxLTQuNDUzIDMuMDA2Yy0xLjY3Ljc0Mi0zLjQ3IDEuMTEzLTUuNCAxLjExM3MtMy43NDgtLjM3MS01LjQ1NS0xLjExM2ExNC4yOCAxNC4yOCAwIDAgMS00LjQ1My0zLjAwNiAxNC4yOCAxNC4yOCAwIDAgMS0zLjAwNi00LjQ1M0MtLjEyOSAxNy4yMi0uNSAxNS40MDItLjUgMTMuNDcyem0xNi44MTEgNC4yMzFhNi42NSA2LjY1IDAgMCAxIDMuMjg0LjgzNWMxLjAwMi41MiAxLjgxOCAxLjI0MyAyLjQ0OSAyLjE3MWExMC4xNCAxMC4xNCAwIDAgMCAxLjk0OC0zLjI4NGMuNDgyLTEuMjI1LjcyNC0yLjU0Mi43MjQtMy45NTIgMC0xLjU1OS0uMjk3LTMuMDA2LS44OTEtNC4zNDItLjU5NC0xLjM3My0xLjM5Mi0yLjU2MS0yLjM5NC0zLjU2M3MtMi4xOS0xLjgtMy41NjMtMi4zOTRjLTEuMzM2LS41OTQtMi43ODMtLjg5MS00LjM0Mi0uODkxcy0zLjAyNC4yOTctNC4zOTguODkxYy0xLjMzNi41OTQtMi41MjQgMS4zOTItMy41NjMgMi4zOTRBMTEuMzUgMTEuMzUgMCAwIDAgMy4xNzQgOS4xM2MtLjU5NCAxLjMzNi0uODkxIDIuNzgzLS44OTEgNC4zNDIgMCAxLjQxLjIyMyAyLjcyOC42NjggMy45NTIuNDgyIDEuMjI1IDEuMTUgMi4zMTkgMi4wMDQgMy4yODQuNjMxLS45MjggMS40NDctMS42NTEgMi40NDktMi4xNzFhNi42NSA2LjY1IDAgMCAxIDMuMjg0LS44MzV6bTIuNzgzLTcuMDE0YTUuNjggNS42OCAwIDAgMS0uNDQ1IDIuMjI3IDUuODcgNS44NyAwIDAgMS0xLjIyNSAxLjc4MWMtLjQ4Mi40ODItMS4wNTguODcyLTEuNzI2IDEuMTY5cy0xLjM5Mi40NDUtMi4xNzEuNDQ1YTUuNjggNS42OCAwIDAgMS0yLjIyNy0uNDQ1IDYuNDQgNi40NCAwIDAgMS0xLjc4MS0xLjE2OSA2LjQ0IDYuNDQgMCAwIDEtMS4xNjktMS43ODEgNS42OCA1LjY4IDAgMCAxLS40NDUtMi4yMjdjMC0uNzc5LjE0OC0xLjUwMy40NDUtMi4xNzFBNi40NCA2LjQ0IDAgMCAxIDkuNTIgNi43MzdhNS44NyA1Ljg3IDAgMCAxIDEuNzgxLTEuMjI1IDUuNjggNS42OCAwIDAgMSAyLjIyNy0uNDQ1Yy43NzkgMCAxLjUwMy4xNDggMi4xNzEuNDQ1czEuMjQzLjcwNSAxLjcyNiAxLjIyNWE1Ljg3IDUuODcgMCAwIDEgMS4yMjUgMS43ODFjLjI5Ny42NjguNDQ1IDEuMzkyLjQ0NSAyLjE3MXptLTIuNzgzIDBjMC0uNzc5LS4yNzgtMS40MjktLjgzNS0xLjk0OC0uNTU3LS41NTctMS4yMDYtLjgzNS0xLjk0OC0uODM1YTIuNzMgMi43MyAwIDAgMC0yLjAwNC44MzVjLS41NTcuNTItLjgzNSAxLjE2OS0uODM1IDEuOTQ4YTIuNzMgMi43MyAwIDAgMCAuODM1IDIuMDA0Yy41NTcuNTIgMS4yMjUuNzc5IDIuMDA0Ljc3OS43NDIgMCAxLjM5Mi0uMjYgMS45NDgtLjc3OWEyLjczIDIuNzMgMCAwIDAgLjgzNS0yLjAwNHpNNy4wNzEgMjIuNjU3Yy44OTEuNjMxIDEuODc0IDEuMTMyIDIuOTUgMS41MDMgMS4xMTMuMzcxIDIuMjgyLjU1NyAzLjUwNy41NTcgMS4xODggMCAyLjMxOS0uMTg2IDMuMzk2LS41NTcgMS4xMTMtLjM3MSAyLjExNS0uODcyIDMuMDA2LTEuNTAzLS4zNzEtLjY2OC0uODkxLTEuMTg4LTEuNTU5LTEuNTU5LS42MzEtLjQwOC0xLjMxNy0uNjEyLTIuMDYtLjYxMmgtNS42MjJjLS43NDIgMC0xLjQ0Ny4yMDQtMi4xMTUuNjEyLS42MzEuMzcxLTEuMTMyLjg5MS0xLjUwMyAxLjU1OXoiLz4mI3hhOzwvc3ZnPg==;" parent="1" vertex="1">
          <mxGeometry x="400.0624137931035" y="1635.4671351327588" width="21.65625" height="21.65625" as="geometry" />
        </mxCell>
        <mxCell id="a5ctUV8vy-N1pXA6XF1Q-22" value="" style="endArrow=blockThin;html=1;strokeColor=#475e75;bendable=1;rounded=0;endFill=1;endSize=4;strokeWidth=1.5;startSize=4;startArrow=none;startFill=0;entryX=-0.015;entryY=0.143;entryDx=0;entryDy=0;entryPerimeter=0;dashed=1;" parent="1" edge="1">
          <mxGeometry width="50" height="50" relative="1" as="geometry">
            <mxPoint x="826.6703475130826" y="1522.2636680147707" as="sourcePoint" />
            <mxPoint x="1394.3905675431079" y="1519.9978319358145" as="targetPoint" />
            <Array as="points" />
          </mxGeometry>
        </mxCell>
        <mxCell id="a5ctUV8vy-N1pXA6XF1Q-66" value="" style="endArrow=blockThin;html=1;strokeColor=#475e75;bendable=1;rounded=0;endFill=1;endSize=4;strokeWidth=1.5;startSize=4;startArrow=none;startFill=0;dashed=1;entryX=1.001;entryY=0.569;entryDx=0;entryDy=0;entryPerimeter=0;exitX=-0.009;exitY=0.546;exitDx=0;exitDy=0;exitPerimeter=0;" parent="1" edge="1">
          <mxGeometry width="50" height="50" relative="1" as="geometry">
            <mxPoint x="1415.0129067828902" y="1491.5629145804428" as="sourcePoint" />
            <mxPoint x="1200.0590730332979" y="1440.0016177858224" as="targetPoint" />
            <Array as="points" />
          </mxGeometry>
        </mxCell>
        <mxCell id="a5ctUV8vy-N1pXA6XF1Q-21" value="" style="edgeStyle=orthogonalEdgeStyle;rounded=0;orthogonalLoop=1;jettySize=auto;html=1;fontSize=18;strokeColor=#188918;fontFamily=Helvetica;fontColor=default;targetPerimeterSpacing=15;endSize=4;startSize=4;endArrow=none;endFill=0;strokeWidth=1.5;startArrow=none;startFill=0;exitX=1.001;exitY=0.401;exitDx=0;exitDy=0;entryX=0;entryY=0.5;entryDx=0;entryDy=0;exitPerimeter=0;" parent="1" target="a5ctUV8vy-N1pXA6XF1Q-14" edge="1">
          <mxGeometry relative="1" as="geometry">
            <mxPoint x="1457.228224878701" y="1462.6041734662808" as="targetPoint" />
            <mxPoint x="1380.0009002550144" y="1454.8224606640565" as="sourcePoint" />
            <Array as="points" />
          </mxGeometry>
        </mxCell>
        <mxCell id="a5ctUV8vy-N1pXA6XF1Q-14" value="SAML2" style="rounded=1;whiteSpace=wrap;html=1;arcSize=50;strokeColor=#188918;fillColor=#f5fae5;fontColor=#266f3a;strokeWidth=1.5;fontSize=10;fontStyle=1" parent="1" vertex="1">
          <mxGeometry x="1505.0369679678593" y="1439.9986367157971" width="66.21323116949667" height="32.53480415860735" as="geometry" />
        </mxCell>
        <mxCell id="a5ctUV8vy-N1pXA6XF1Q-3" value="Subaccount" style="rounded=1;whiteSpace=wrap;html=1;strokeColor=#475E75;fillColor=#ffffff;arcSize=24;absoluteArcSize=1;imageWidth=64;imageHeight=64;strokeWidth=1.5;part=1;verticalAlign=top;align=left;fontSize=16;fontStyle=1;spacingLeft=10;spacingTop=10;" parent="1" vertex="1">
          <mxGeometry x="385.89" y="100" width="594.11" height="400" as="geometry" />
        </mxCell>
        <mxCell id="a5ctUV8vy-N1pXA6XF1Q-4" value="" style="rounded=1;whiteSpace=wrap;html=1;strokeColor=#0070F2;fillColor=#ffffff;arcSize=24;absoluteArcSize=1;imageWidth=64;imageHeight=64;strokeWidth=1.5;" parent="1" vertex="1">
          <mxGeometry x="402" y="150.19" width="568" height="339.81" as="geometry" />
        </mxCell>
        <mxCell id="a5ctUV8vy-N1pXA6XF1Q-5" value="" style="shape=mxgraph.sap.icon;labelPosition=center;verticalLabelPosition=bottom;align=center;verticalAlign=top;strokeWidth=1;strokeColor=#D5DADD;fillColor=#EDEFF0;gradientColor=#FCFCFC;gradientDirection=west;aspect=fixed;SAPIcon=SAP_BTP,_Kyma_runtime;labelBackgroundColor=none;" parent="1" vertex="1">
          <mxGeometry x="417.681335808434" y="156.78326834520487" width="21.175438213887176" height="21.175438213887176" as="geometry" />
        </mxCell>
        <mxCell id="a5ctUV8vy-N1pXA6XF1Q-13" value="&lt;font color=&quot;#1d2d3e&quot; size=&quot;1&quot; face=&quot;arial&quot;&gt;&lt;b style=&quot;font-size: 14px;&quot;&gt;Kyma Runtime&lt;/b&gt;&lt;/font&gt;" style="text;html=1;align=left;verticalAlign=middle;resizable=0;points=[];autosize=1;strokeColor=none;fillColor=none;fontSize=12;fontColor=default;fontFamily=Helvetica;" parent="1" vertex="1">
          <mxGeometry x="445.17407789519774" y="151.84045899803087" width="120" height="30" as="geometry" />
        </mxCell>
        <mxCell id="Z4dEkWU-I7dmtToVSUjf-26" value="" style="group" parent="1" vertex="1" connectable="0">
          <mxGeometry x="360.5817847546316" y="529.3939771863116" width="974.9216801018243" height="358.28999999999996" as="geometry" />
        </mxCell>
        <mxCell id="Z4dEkWU-I7dmtToVSUjf-113" value="" style="rounded=1;whiteSpace=wrap;html=1;strokeColor=#0070F2;fillColor=#ffffff;arcSize=24;absoluteArcSize=1;imageWidth=64;imageHeight=64;strokeWidth=1.5;movable=1;resizable=1;rotatable=1;deletable=1;editable=1;locked=0;connectable=1;fontStyle=1" parent="Z4dEkWU-I7dmtToVSUjf-26" vertex="1">
          <mxGeometry x="32.77000000000001" y="11.95" width="389.61" height="334.4" as="geometry" />
        </mxCell>
        <mxCell id="Z4dEkWU-I7dmtToVSUjf-114" value="&lt;b style=&quot;border-color: var(--border-color); font-family: arial; font-style: normal; font-variant-ligatures: normal; font-variant-caps: normal; letter-spacing: normal; orphans: 2; text-indent: 0px; text-transform: none; widows: 2; word-spacing: 0px; -webkit-text-stroke-width: 0px; background-color: rgb(251, 251, 251); text-decoration-thickness: initial; text-decoration-style: initial; text-decoration-color: initial; font-size: 14px;&quot;&gt;&lt;font color=&quot;#1d2d3e&quot;&gt;SAP Cloud Identity Services&lt;/font&gt;&lt;/b&gt;" style="text;whiteSpace=wrap;html=1;align=center;verticalAlign=top;points=[[0,0,0,0,0],[0,0.25,0,0,0],[0,0.5,0,0,0],[0,0.75,0,0,0],[0,1,0,0,0],[0.25,0,0,0,0],[0.25,1,0,0,0],[0.5,0,0,0,0],[0.5,1,0,0,0],[0.75,0,0,0,0],[0.75,1,0,0,0],[1,0,0,0,0],[1,0.25,0,0,0],[1,0.5,0,0,0],[1,0.75,0,0,0],[1,1,0,0,0]];movable=1;resizable=1;rotatable=1;deletable=1;editable=1;locked=0;connectable=1;" parent="Z4dEkWU-I7dmtToVSUjf-26" vertex="1">
          <mxGeometry x="37.44490280491379" y="26.890604749013775" width="266.2736679695126" height="33.9471674516646" as="geometry" />
        </mxCell>
        <mxCell id="Z4dEkWU-I7dmtToVSUjf-115" value="" style="rounded=1;whiteSpace=wrap;html=1;strokeColor=#0070F2;fillColor=#ffffff;arcSize=24;absoluteArcSize=1;imageWidth=64;imageHeight=64;strokeWidth=1.5;movable=1;resizable=1;rotatable=1;deletable=1;editable=1;locked=0;connectable=1;" parent="Z4dEkWU-I7dmtToVSUjf-26" vertex="1">
          <mxGeometry x="41.64415061490524" y="74.35293417894061" width="135.31409686860638" height="101.84150235499393" as="geometry" />
        </mxCell>
        <mxCell id="Z4dEkWU-I7dmtToVSUjf-116" value="" style="shape=mxgraph.sap.icon;labelPosition=center;verticalLabelPosition=bottom;align=center;verticalAlign=top;strokeWidth=1;strokeColor=#D5DADD;fillColor=#EDEFF0;gradientColor=#FCFCFC;gradientDirection=west;aspect=fixed;SAPIcon=SAP_Cloud_Identity_Service;movable=1;resizable=1;rotatable=1;deletable=1;editable=1;locked=0;connectable=1;" parent="Z4dEkWU-I7dmtToVSUjf-26" vertex="1">
          <mxGeometry x="40.854538041375505" y="27.910539786844012" width="25.9200503255576" height="25.9200503255576" as="geometry" />
        </mxCell>
        <mxCell id="Z4dEkWU-I7dmtToVSUjf-117" value="&lt;b style=&quot;border-color: var(--border-color); font-family: arial; font-style: normal; font-variant-ligatures: normal; font-variant-caps: normal; letter-spacing: normal; orphans: 2; text-indent: 0px; text-transform: none; widows: 2; word-spacing: 0px; -webkit-text-stroke-width: 0px; background-color: rgb(251, 251, 251); text-decoration-thickness: initial; text-decoration-style: initial; text-decoration-color: initial;&quot;&gt;&lt;font style=&quot;font-size: 12px;&quot; color=&quot;#1d2d3e&quot;&gt;App for С/4HANA&lt;/font&gt;&lt;/b&gt;" style="text;whiteSpace=wrap;html=1;align=center;verticalAlign=top;points=[[0,0,0,0,0],[0,0.25,0,0,0],[0,0.5,0,0,0],[0,0.75,0,0,0],[0,1,0,0,0],[0.25,0,0,0,0],[0.25,1,0,0,0],[0.5,0,0,0,0],[0.5,1,0,0,0],[0.75,0,0,0,0],[0.75,1,0,0,0],[1,0,0,0,0],[1,0.25,0,0,0],[1,0.5,0,0,0],[1,0.75,0,0,0],[1,1,0,0,0]];movable=1;resizable=1;rotatable=1;deletable=1;editable=1;locked=0;connectable=1;" parent="Z4dEkWU-I7dmtToVSUjf-26" vertex="1">
          <mxGeometry x="46.980000000000004" y="74.34" width="113.02" height="20.65" as="geometry" />
        </mxCell>
        <mxCell id="Z4dEkWU-I7dmtToVSUjf-118" value="Conditional Authentication" style="rounded=1;whiteSpace=wrap;html=1;strokeColor=#0070F2;fillColor=#EBF8FF;arcSize=24;absoluteArcSize=1;imageWidth=64;imageHeight=64;strokeWidth=1.5;movable=1;resizable=1;rotatable=1;deletable=1;editable=1;locked=0;connectable=1;" parent="Z4dEkWU-I7dmtToVSUjf-26" vertex="1">
          <mxGeometry x="49.31092646786928" y="106.88003970485573" width="114.42353863433266" height="56.578612419441036" as="geometry" />
        </mxCell>
        <mxCell id="Z4dEkWU-I7dmtToVSUjf-120" value="External Users" style="rounded=1;whiteSpace=wrap;html=1;strokeColor=#475E75;strokeWidth=1.5;arcSize=16;fillColor=#F5F6F7;perimeterSpacing=0;absoluteArcSize=1;" parent="Z4dEkWU-I7dmtToVSUjf-26" vertex="1">
          <mxGeometry x="50.31418782003544" y="209.60891193012986" width="96.89258024404756" height="21.985337762657576" as="geometry" />
        </mxCell>
        <mxCell id="Z4dEkWU-I7dmtToVSUjf-121" value="Employees" style="rounded=1;whiteSpace=wrap;html=1;strokeColor=#475E75;strokeWidth=1.5;arcSize=16;fillColor=#F5F6F7;perimeterSpacing=0;absoluteArcSize=1;" parent="Z4dEkWU-I7dmtToVSUjf-26" vertex="1">
          <mxGeometry x="163.7379528395278" y="210.58830348506308" width="96.89258024404756" height="21.00844506704023" as="geometry" />
        </mxCell>
        <mxCell id="Z4dEkWU-I7dmtToVSUjf-122" value="" style="endArrow=none;html=1;strokeColor=#475e75;bendable=1;rounded=0;endFill=0;endSize=4;edgeStyle=orthogonalEdgeStyle;startArrow=none;startFill=0;startSize=4;jumpStyle=none;jumpSize=0;targetPerimeterSpacing=15;strokeWidth=1.5;entryX=0.5;entryY=0;entryDx=0;entryDy=0;exitX=0.426;exitY=1.005;exitDx=0;exitDy=0;exitPerimeter=0;" parent="Z4dEkWU-I7dmtToVSUjf-26" edge="1">
          <mxGeometry width="50" height="50" relative="1" as="geometry">
            <mxPoint x="98.28795588093158" y="176.70364404570944" as="sourcePoint" />
            <mxPoint x="211.18424296155172" y="210.58830348506308" as="targetPoint" />
            <Array as="points">
              <mxPoint x="98" y="190" />
              <mxPoint x="211" y="190" />
            </Array>
          </mxGeometry>
        </mxCell>
        <mxCell id="Z4dEkWU-I7dmtToVSUjf-123" value="" style="endArrow=none;html=1;strokeColor=#475e75;bendable=1;rounded=0;endFill=0;endSize=4;startArrow=none;startFill=0;startSize=4;jumpStyle=none;jumpSize=0;targetPerimeterSpacing=15;strokeWidth=1.5;entryX=0.5;entryY=0;entryDx=0;entryDy=0;exitX=0.412;exitY=1.002;exitDx=0;exitDy=0;exitPerimeter=0;" parent="Z4dEkWU-I7dmtToVSUjf-26" source="Z4dEkWU-I7dmtToVSUjf-115" edge="1">
          <mxGeometry width="50" height="50" relative="1" as="geometry">
            <mxPoint x="97.4182152453684" y="179.60602281368836" as="sourcePoint" />
            <mxPoint x="97.7604779420592" y="209.60891193012992" as="targetPoint" />
          </mxGeometry>
        </mxCell>
        <mxCell id="Z4dEkWU-I7dmtToVSUjf-128" value="&lt;font color=&quot;#475e75&quot; size=&quot;1&quot;&gt;&lt;b style=&quot;&quot;&gt;User&lt;/b&gt;&lt;/font&gt;" style="rounded=1;whiteSpace=wrap;html=1;arcSize=0;strokeColor=#475e75;fillColor=#f5f6f7;strokeWidth=1.5;" parent="Z4dEkWU-I7dmtToVSUjf-26" vertex="1">
          <mxGeometry x="333.72187102248597" y="320.6075198148602" width="33.42935935511243" height="12.739163498098856" as="geometry" />
        </mxCell>
        <mxCell id="Z4dEkWU-I7dmtToVSUjf-129" value="&lt;font color=&quot;#5d36ff&quot; size=&quot;1&quot;&gt;&lt;b style=&quot;&quot;&gt;Group&lt;/b&gt;&lt;/font&gt;" style="rounded=1;whiteSpace=wrap;html=1;arcSize=50;strokeColor=#5D36FF;fillColor=#f1ecff;strokeWidth=1.5;" parent="Z4dEkWU-I7dmtToVSUjf-26" vertex="1">
          <mxGeometry x="319.416151887993" y="231.59751981486022" width="62.04691698486776" height="12.739163498098856" as="geometry" />
        </mxCell>
        <mxCell id="Z4dEkWU-I7dmtToVSUjf-131" value="" style="edgeStyle=orthogonalEdgeStyle;rounded=0;orthogonalLoop=1;jettySize=auto;html=1;endArrow=none;endFill=0;strokeColor=#475e74;endSize=4;startSize=4;strokeWidth=1.5;exitX=0.5;exitY=0;exitDx=0;exitDy=0;entryX=1;entryY=0.5;entryDx=0;entryDy=0;entryPerimeter=0;" parent="Z4dEkWU-I7dmtToVSUjf-26" source="Z4dEkWU-I7dmtToVSUjf-128" target="Z4dEkWU-I7dmtToVSUjf-125" edge="1">
          <mxGeometry relative="1" as="geometry">
            <mxPoint x="119.4182152453684" y="280.60602281368836" as="targetPoint" />
            <mxPoint x="162.13655070004188" y="316.6075198148602" as="sourcePoint" />
            <Array as="points">
              <mxPoint x="350" y="280" />
            </Array>
          </mxGeometry>
        </mxCell>
        <mxCell id="EQLkxKmraLCGRCHlAuL3-30" value="" style="endArrow=none;html=1;strokeColor=#5D36FF;bendable=1;rounded=0;endFill=0;endSize=4;strokeWidth=1.5;startSize=4;startArrow=none;startFill=0;entryX=0.5;entryY=1;entryDx=0;entryDy=0;" edge="1" parent="Z4dEkWU-I7dmtToVSUjf-26" source="Z4dEkWU-I7dmtToVSUjf-125" target="Z4dEkWU-I7dmtToVSUjf-129">
          <mxGeometry width="50" height="50" relative="1" as="geometry">
            <mxPoint x="209.4182152453684" y="270.60602281368836" as="sourcePoint" />
            <mxPoint x="349.4182152453684" y="279.0360228136883" as="targetPoint" />
            <Array as="points">
              <mxPoint x="350.4182152453684" y="280.60602281368836" />
            </Array>
          </mxGeometry>
        </mxCell>
        <mxCell id="Z4dEkWU-I7dmtToVSUjf-125" value="Identity&#xa;Directory" style="shape=mxgraph.sap.icon;labelPosition=center;verticalLabelPosition=bottom;align=center;verticalAlign=top;strokeWidth=1;strokeColor=#D5DADD;fillColor=#EDEFF0;gradientColor=#FCFCFC;gradientDirection=west;aspect=fixed;SAPIcon=Identity_Directory;fontColor=#1D2D3E;" parent="Z4dEkWU-I7dmtToVSUjf-26" vertex="1">
          <mxGeometry x="226.68" y="260.61" width="39.47" height="39.47" as="geometry" />
        </mxCell>
        <mxCell id="Z4dEkWU-I7dmtToVSUjf-152" value="" style="group" parent="Z4dEkWU-I7dmtToVSUjf-26" vertex="1" connectable="0">
          <mxGeometry x="679.4182152453684" y="162.6104149402804" width="185" height="170" as="geometry" />
        </mxCell>
        <mxCell id="Z4dEkWU-I7dmtToVSUjf-139" value="" style="rounded=1;whiteSpace=wrap;html=1;strokeColor=#475E75;fillColor=#F5F6F7;arcSize=24;absoluteArcSize=1;imageWidth=64;imageHeight=64;strokeWidth=1.5;dashed=1;dashPattern=8 8;" parent="Z4dEkWU-I7dmtToVSUjf-152" vertex="1">
          <mxGeometry y="1" width="185" height="170" as="geometry" />
        </mxCell>
        <mxCell id="Z4dEkWU-I7dmtToVSUjf-140" value="" style="image;aspect=fixed;html=1;points=[];align=center;fontSize=12;image=img/lib/azure2/other/Entra_Identity.svg;" parent="Z4dEkWU-I7dmtToVSUjf-152" vertex="1">
          <mxGeometry x="15.25" y="28" width="38.25" height="34" as="geometry" />
        </mxCell>
        <mxCell id="Z4dEkWU-I7dmtToVSUjf-141" value="&lt;font size=&quot;1&quot; face=&quot;arial&quot; style=&quot;&quot;&gt;&lt;span style=&quot;font-size: 12px;&quot;&gt;EntraID&lt;/span&gt;&lt;/font&gt;" style="text;html=1;align=center;verticalAlign=middle;resizable=0;points=[[0,0.5,0,0,0],[0.5,0,0,0,0],[0.5,1,0,0,0],[1,0.5,0,0,0]];autosize=1;strokeColor=none;fillColor=none;fontSize=12;fontColor=#1D2D3E;fontFamily=Helvetica;" parent="Z4dEkWU-I7dmtToVSUjf-152" vertex="1">
          <mxGeometry x="47" y="30" width="60" height="30" as="geometry" />
        </mxCell>
        <mxCell id="Z4dEkWU-I7dmtToVSUjf-142" value="&lt;font face=&quot;arial&quot; color=&quot;#1d2d3e&quot;&gt;&lt;span style=&quot;font-size: 14px;&quot;&gt;&lt;b&gt;Microsoft Azure&lt;/b&gt;&lt;/span&gt;&lt;/font&gt;" style="text;html=1;align=left;verticalAlign=middle;resizable=0;points=[];autosize=1;strokeColor=none;fillColor=none;fontSize=12;fontColor=default;fontFamily=Helvetica;" parent="Z4dEkWU-I7dmtToVSUjf-152" vertex="1">
          <mxGeometry x="15" width="130" height="30" as="geometry" />
        </mxCell>
        <mxCell id="Z4dEkWU-I7dmtToVSUjf-143" value="" style="rounded=1;whiteSpace=wrap;html=1;strokeColor=#475E75;fillColor=#ffffff;arcSize=24;absoluteArcSize=1;imageWidth=64;imageHeight=64;strokeWidth=1.5;" parent="Z4dEkWU-I7dmtToVSUjf-152" vertex="1">
          <mxGeometry x="18" y="99" width="147" height="41" as="geometry" />
        </mxCell>
        <mxCell id="Z4dEkWU-I7dmtToVSUjf-144" value="&lt;font size=&quot;1&quot; face=&quot;arial&quot; style=&quot;&quot;&gt;&lt;span style=&quot;font-size: 12px;&quot;&gt;Enterprise application&lt;/span&gt;&lt;/font&gt;" style="text;html=1;align=center;verticalAlign=middle;resizable=0;points=[[0,0.5,0,0,0],[0.5,0,0,0,0],[0.5,1,0,0,0],[1,0.5,0,0,0]];autosize=1;strokeColor=none;fillColor=none;fontSize=12;fontColor=#1D2D3E;fontFamily=Helvetica;" parent="Z4dEkWU-I7dmtToVSUjf-152" vertex="1">
          <mxGeometry x="35" y="105" width="140" height="30" as="geometry" />
        </mxCell>
        <mxCell id="Z4dEkWU-I7dmtToVSUjf-146" value="" style="image;sketch=0;aspect=fixed;html=1;points=[];align=center;fontSize=12;image=img/lib/mscae/Enterprise_Applications.svg;" parent="Z4dEkWU-I7dmtToVSUjf-152" vertex="1">
          <mxGeometry x="24.579999999999927" y="110" width="19.6" height="20" as="geometry" />
        </mxCell>
        <mxCell id="EQLkxKmraLCGRCHlAuL3-34" value="" style="endArrow=blockThin;html=1;strokeColor=#475e75;bendable=1;rounded=0;endFill=1;endSize=4;strokeWidth=1.5;startSize=4;startArrow=none;startFill=0;dashed=1;" edge="1" parent="Z4dEkWU-I7dmtToVSUjf-26">
          <mxGeometry width="50" height="50" relative="1" as="geometry">
            <mxPoint x="265.1482152453684" y="219.0460228136884" as="sourcePoint" />
            <mxPoint x="679.4182152453684" y="222.60602281368836" as="targetPoint" />
            <Array as="points" />
          </mxGeometry>
        </mxCell>
        <mxCell id="EQLkxKmraLCGRCHlAuL3-35" value="" style="endArrow=blockThin;html=1;strokeColor=#475e75;bendable=1;rounded=0;endFill=1;endSize=4;strokeWidth=1.5;startSize=4;startArrow=none;startFill=0;dashed=1;entryX=1.001;entryY=0.569;entryDx=0;entryDy=0;entryPerimeter=0;" edge="1" parent="Z4dEkWU-I7dmtToVSUjf-26">
          <mxGeometry width="50" height="50" relative="1" as="geometry">
            <mxPoint x="679.4182152453684" y="300.60602281368836" as="sourcePoint" />
            <mxPoint x="422.3782152453683" y="300.07602281368827" as="targetPoint" />
            <Array as="points" />
          </mxGeometry>
        </mxCell>
        <mxCell id="EQLkxKmraLCGRCHlAuL3-33" value="" style="rounded=0;orthogonalLoop=1;jettySize=auto;html=1;fontSize=18;strokeColor=#188918;fontFamily=Helvetica;fontColor=default;targetPerimeterSpacing=15;endSize=4;startSize=4;endArrow=none;endFill=0;strokeWidth=1.5;startArrow=none;startFill=0;exitX=1;exitY=0.75;exitDx=0;exitDy=0;entryX=0.018;entryY=0.597;entryDx=0;entryDy=0;entryPerimeter=0;" edge="1" parent="Z4dEkWU-I7dmtToVSUjf-26" source="Z4dEkWU-I7dmtToVSUjf-113" target="Z4dEkWU-I7dmtToVSUjf-139">
          <mxGeometry relative="1" as="geometry">
            <mxPoint x="679.4182152453684" y="261.60602281368836" as="targetPoint" />
            <mxPoint x="509.4182152453684" y="260.60602281368836" as="sourcePoint" />
          </mxGeometry>
        </mxCell>
        <mxCell id="EQLkxKmraLCGRCHlAuL3-36" value="SAML2" style="rounded=1;whiteSpace=wrap;html=1;arcSize=50;strokeColor=#188918;fillColor=#f5fae5;fontColor=#266f3a;strokeWidth=1.5;fontSize=10;fontStyle=1" vertex="1" parent="Z4dEkWU-I7dmtToVSUjf-26">
          <mxGeometry x="533.4182152453684" y="255.34602281368836" width="93" height="16" as="geometry" />
        </mxCell>
        <mxCell id="EQLkxKmraLCGRCHlAuL3-37" value="" style="endArrow=blockThin;html=1;strokeColor=#475e75;bendable=1;rounded=0;endFill=1;endSize=4;strokeWidth=1.5;startSize=4;startArrow=none;startFill=0;exitX=0.5;exitY=1;exitDx=0;exitDy=0;" edge="1" parent="Z4dEkWU-I7dmtToVSUjf-26" source="Z4dEkWU-I7dmtToVSUjf-120">
          <mxGeometry width="50" height="50" relative="1" as="geometry">
            <mxPoint x="106.67821524536839" y="279.71602281368837" as="sourcePoint" />
            <mxPoint x="226.6782152453684" y="279.71602281368837" as="targetPoint" />
            <Array as="points">
              <mxPoint x="99.4182152453684" y="279.60602281368836" />
            </Array>
          </mxGeometry>
        </mxCell>
        <mxCell id="EQLkxKmraLCGRCHlAuL3-43" value="" style="rounded=1;whiteSpace=wrap;html=1;strokeColor=#0070F2;fillColor=#EBF8FF;arcSize=24;absoluteArcSize=1;imageWidth=64;imageHeight=64;strokeWidth=1.5;" vertex="1" parent="Z4dEkWU-I7dmtToVSUjf-26">
          <mxGeometry x="250" y="74.34" width="155.19" height="35.66" as="geometry" />
        </mxCell>
        <mxCell id="EQLkxKmraLCGRCHlAuL3-42" value="" style="endArrow=blockThin;html=1;strokeColor=#475e75;bendable=1;rounded=0;endFill=1;endSize=4;strokeWidth=1.5;startSize=4;startArrow=none;startFill=0;exitX=0.5;exitY=1;exitDx=0;exitDy=0;entryX=0.582;entryY=0.744;entryDx=0;entryDy=0;entryPerimeter=0;" edge="1" parent="Z4dEkWU-I7dmtToVSUjf-26" target="Z4dEkWU-I7dmtToVSUjf-113">
          <mxGeometry width="50" height="50" relative="1" as="geometry">
            <mxPoint x="329.19499999999994" y="110.00000000000011" as="sourcePoint" />
            <mxPoint x="410.4382152453684" y="200.60602281368836" as="targetPoint" />
            <Array as="points" />
          </mxGeometry>
        </mxCell>
        <mxCell id="Z4dEkWU-I7dmtToVSUjf-157" value="&lt;b style=&quot;border-color: var(--border-color); font-family: arial; font-style: normal; font-variant-ligatures: normal; font-variant-caps: normal; letter-spacing: normal; orphans: 2; text-indent: 0px; text-transform: none; widows: 2; word-spacing: 0px; -webkit-text-stroke-width: 0px; background-color: rgb(251, 251, 251); text-decoration-thickness: initial; text-decoration-style: initial; text-decoration-color: initial;&quot;&gt;&lt;font style=&quot;font-size: 12px;&quot; color=&quot;#1d2d3e&quot;&gt;App for Kyma&lt;/font&gt;&lt;/b&gt;" style="text;whiteSpace=wrap;html=1;align=center;verticalAlign=top;points=[[0,0,0,0,0],[0,0.25,0,0,0],[0,0.5,0,0,0],[0,0.75,0,0,0],[0,1,0,0,0],[0.25,0,0,0,0],[0.25,1,0,0,0],[0.5,0,0,0,0],[0.5,1,0,0,0],[0.75,0,0,0,0],[0.75,1,0,0,0],[1,0,0,0,0],[1,0.25,0,0,0],[1,0.5,0,0,0],[1,0.75,0,0,0],[1,1,0,0,0]];movable=1;resizable=1;rotatable=1;deletable=1;editable=1;locked=0;connectable=1;" parent="Z4dEkWU-I7dmtToVSUjf-26" vertex="1">
          <mxGeometry x="278.77223058484185" y="78.4702509505702" width="92.83494072318746" height="20.64623049691882" as="geometry" />
        </mxCell>
        <mxCell id="Z4dEkWU-I7dmtToVSUjf-44" value="" style="rounded=1;whiteSpace=wrap;html=1;strokeColor=#0070F2;fillColor=#EBF8FF;arcSize=24;absoluteArcSize=1;imageWidth=64;imageHeight=64;strokeWidth=1.5;dashed=1;dashPattern=1 2;" parent="1" vertex="1">
          <mxGeometry x="412" y="182" width="548" height="300" as="geometry" />
        </mxCell>
        <mxCell id="Z4dEkWU-I7dmtToVSUjf-42" value="" style="rounded=1;whiteSpace=wrap;html=1;strokeColor=#0070F2;strokeWidth=1.5;arcSize=16;fillColor=#ffffff;perimeterSpacing=0;absoluteArcSize=1;container=0;" parent="1" vertex="1">
          <mxGeometry x="425.64" y="215.08" width="524.36" height="255.92" as="geometry">
            <mxRectangle x="425.63734408145945" y="214.0803041825095" width="50" height="40" as="alternateBounds" />
          </mxGeometry>
        </mxCell>
        <mxCell id="Z4dEkWU-I7dmtToVSUjf-52" value="" style="rounded=1;whiteSpace=wrap;html=1;strokeColor=#0070F2;fillColor=#EBF8FF;arcSize=24;absoluteArcSize=1;imageWidth=64;imageHeight=64;strokeWidth=1.5;dashed=1;dashPattern=1 2;" parent="1" vertex="1">
          <mxGeometry x="447.08" y="349.98" width="225" height="95" as="geometry" />
        </mxCell>
        <mxCell id="Z4dEkWU-I7dmtToVSUjf-53" value="Istio Sidecar (Envoy)" style="rounded=1;whiteSpace=wrap;html=1;strokeColor=#0070F2;fillColor=#ffffff;arcSize=24;absoluteArcSize=1;imageWidth=64;imageHeight=64;strokeWidth=1.5;" parent="1" vertex="1">
          <mxGeometry x="459.95" y="386.31" width="92" height="43" as="geometry" />
        </mxCell>
        <mxCell id="Z4dEkWU-I7dmtToVSUjf-54" value="" style="rounded=1;whiteSpace=wrap;html=1;strokeColor=#0070F2;fillColor=#ffffff;arcSize=24;absoluteArcSize=1;imageWidth=64;imageHeight=64;strokeWidth=1.5;" parent="1" vertex="1">
          <mxGeometry x="562.26" y="387.31" width="93.74" height="42.69" as="geometry" />
        </mxCell>
        <mxCell id="Z4dEkWU-I7dmtToVSUjf-55" value="" style="endArrow=blockThin;html=1;strokeColor=#5D36FF;bendable=1;rounded=0;endFill=1;endSize=4;strokeWidth=1.5;startSize=4;startArrow=none;startFill=0;exitX=0.5;exitY=1;exitDx=0;exitDy=0;entryX=0.5;entryY=0;entryDx=0;entryDy=0;" parent="1" edge="1">
          <mxGeometry width="50" height="50" relative="1" as="geometry">
            <mxPoint x="518.3149999999998" y="272.2900000000002" as="sourcePoint" />
            <mxPoint x="518.03" y="290.31999999999994" as="targetPoint" />
            <Array as="points" />
          </mxGeometry>
        </mxCell>
        <mxCell id="Z4dEkWU-I7dmtToVSUjf-56" value="" style="endArrow=blockThin;html=1;strokeColor=#5D36FF;bendable=1;rounded=0;endFill=1;endSize=4;strokeWidth=1.5;startSize=4;startArrow=none;startFill=0;exitX=0.5;exitY=1;exitDx=0;exitDy=0;entryX=0.813;entryY=-0.012;entryDx=0;entryDy=0;entryPerimeter=0;" parent="1" target="Z4dEkWU-I7dmtToVSUjf-75" edge="1">
          <mxGeometry width="50" height="50" relative="1" as="geometry">
            <mxPoint x="518.03" y="321.31999999999994" as="sourcePoint" />
            <mxPoint x="588" y="350" as="targetPoint" />
          </mxGeometry>
        </mxCell>
        <mxCell id="Z4dEkWU-I7dmtToVSUjf-75" value="&lt;font color=&quot;#5d36ff&quot; size=&quot;1&quot;&gt;&lt;b style=&quot;&quot;&gt;Reuses IAS SSO&lt;/b&gt;&lt;/font&gt;" style="rounded=1;whiteSpace=wrap;html=1;arcSize=50;strokeColor=#5D36FF;fillColor=#f1ecff;strokeWidth=1.5;" parent="1" vertex="1">
          <mxGeometry x="443.1246612926035" y="343.0498707224335" width="93.33882336303209" height="17.325262357414434" as="geometry" />
        </mxCell>
        <mxCell id="Z4dEkWU-I7dmtToVSUjf-162" value="" style="shape=image;verticalLabelPosition=bottom;labelBackgroundColor=default;verticalAlign=top;aspect=fixed;imageAspect=0;image=data:image/png,iVBORw0KGgoAAAANSUhEUgAAAUEAAACdCAIAAACl512GAAAAAXNSR0IArs4c6QAAAERlWElmTU0AKgAAAAgAAYdpAAQAAAABAAAAGgAAAAAAA6ABAAMAAAABAAEAAKACAAQAAAABAAABQaADAAQAAAABAAAAnQAAAABfwIT6AAAybUlEQVR4Ae2dCZxUxbX/u2fpWWBWFkHZdJBVUNThDaJ/YgKoGHAjikgUjZA8oiZBzcP3jwE1+bv74hJUQMHE4PKMEQmg4EYUGcUlSEC2QSGgyDbAwCw9PdP/b3fNVNfcvt19e5vp7qn74TPUrTq1na5fnVOnTtW1u91um340BzQHkpYDaUnbct1wzQHNAQ8HNIb1ONAcSG4OaAwn9++nW685oDGsx4DmQHJzQGM4uX8/3XrNAY1hPQY0B5KbAxrDyf376dZrDmgM6zGgOZDcHMhI7uaHav2BxuOVjTWHGqtdtsZqt7PW7ZI5su0ZuXZHhi2tOC23W3penj1LJumA5kAScSB1MAxct7j2f+na92XDwc2Nh5c3HLC567y/hNA17AF+FeGm1kiqw54zOr14QFrh2RndT0kvHpR5ggZ2AKbp6ATigD2pfS23uQ6sdu5Y59o7z7XTi9h0D2vtTROTI0wPFqfNg2TP4xHXYLvRZs+antH7e5m9zs7scWpGZ5Go/2oOJBQHkg/DVe669+oq/u7cPq++wos0O6ANF64Wf4MmVHsg3QCeZ2b2vdBRMiarn8XsmkxzoBU4kEwYXlq76am69ctdu222DCu49clVlZFiSdwsq2WKlVnAU6AXz9Mz+03MGqDBLLmnA23IgSTA8EfOXc/W/nNe/VabLT0IdBWZCT8bPDy1Z5Wl5Q9NK+poz+yalktEJ3uOJ977HHTX8P++xupj7vovGivLG482r589tQiaQMBuBrN7pmPgz3JKtZot2KX/tgkHEhrDCN5f1aypaDwCGk3hpOC2AYvU1IyepRndBmZ07ZFe0Du9KAKG7myo3Orav7PhcIs1thfSARvgritL73J3zggtliNguM4SPQcSFMMLqj+eVvuRR3E1W+s2i8GGkrSCaY5+52b2HprZPR42ZGzdn9fvWVP/73udm50euW2uCHjbU++wZy3KGXl1zhnR/yq6BM0B6xxIOAx70FuzxtMBP/Q2Q9c1LqPHFMfAMVmndk7rYL2rUVIiolfVbXvG+WV5w35TMDc1z56xOOc8jeQoua2zW+dAAmEYzXlC9dvIXofdYeiAFx51SN17skt/mD0wHiLXUGOQV4Tza7Ub76tbb6rkCyTThXc6XjzS0SdIOTpJcyAmHEgIDLPNe+2xZeUNB232TMOyU6B3pmNwApqOmo1tW2z2bNNmj8s46bm8Ca2pLMRkTOhCkosDbY/hW6tWPOL8lwkM3E5YOT9n5FU5p7et4A3+i7Jf/fDxD+6q+9zf8OadgGrvyx7+Xx1GBS9Ep2oORMyBtsQwcqzs2BKabibEXKD3xtzhEXeslTOC5LnV5bNq15kg2e0sSeu4Iu8yvQXVyj9KO6muzTBsKn6TXXCB5DnH3vFXK5K9X+0EDEnazTbAMDahsiOLKxqPqbYrse7F/+mhvAsSWXO28jNjwZ5x7I3lrj0Gmex0O8vSi1cWTEr2DlphgqZpNQ60NoZX1W0de+x14+C2NaJO/6Pj+P9w9Gq1nse7Im9Plxl2yLxTlas874pU6mm8OanLD86BVsXwnGNvY/vBoUq2SSiZs7POnNPxBzIylQI/Pfo6XqJql+md0109P2dUEq32U+kXSb2+tB6GLz7ywnLXXqP+bLOVd7wktYWSVyD/3bBthtcXC4en8yek3pDSPWplDrQGhrH0DDv8pwp3rWp/ZnE4LqPbsoKrW7nDbVIdHBh75MXyhkMtprD2xIE2YXs7qTTuGGb4dq5cgM7cEsDV7XDX1GuK36jq1bCFk1VrC69rJ6NNdzMeHIgvhjFBdzn8LO2WAPYugOs+yJvYPv0QX6j55+TqVQ675yCkeGBIiT3788JrtbG6mSX6//A4EEcMmwPYZvu6YEpkBwPD61miUns8W6peVi3zGsaJ+lslR7vihWFU6PzKefBAlcCEDxTdqAWO6eyGNN5eNC05Ro1uZSJxIC73S7tcLtbABgAzRuuKf64BDFs4BXG0aDozmmdl4X0IY/Mbcfg58ar/ag5Y50BcMDygaiGjU5XAWG60kFF/FeYyVBIDjLkPiB04lUyHNQdCciD2GGYUqttIYrGnTa/+v4QpjNlCx3ztT6xjNAcCcSDGGMYTy+PI0XyxswCwlsCBuC9gTKpPqbY7HnFuxHwdKIuO1xwwcCCWGMYhyetK2XQLh2dcul3smhiq1K8qB4AxhvrmKzU9KWwgs//EvQgqmQ5rDgTiQMwwjK2VwwyqAwPj8uvCqYzRQHXreMEBdtrK867EidrHEHt2v6MvYNv3xeiQ5kAADsQMwxwnZM9T1sKIXNlxQnveB5assBLAY3xx7hjv1ZkecrEYmXT0VSt5NU0750BsMMwy2HMeWC6D3U5cKfV9y2GNLa7C5BSEb2FsS1vu+pZbPsMqRBO3Qw7EwMfD63j0kvQfZBSOS+/cTg4zxHzE9K2c38Kq767+uvBGrc7EnM+pVGAMMGw/9DgcEUJY2LGOFs9oJ8tglqx83NjpbuDvUXdt9KqHx4Wr8klpVoCf+lBEKuEtHn2J9vvDaNESwJ72uT3nGVIAwOKjLXxz/LvGY3yZqcbtqnI7+TLTbvfxLY3HEJWqJdnWtIhoHFd7UpQKCC5ci3NHT65+h69GCMZyYhGNWl8Y4Bld+jHjQFRymIHe5/ACVYvm654P511kVlGSxY38y+2fDMpz9urI9ybkJ9RkH+TKX8aIAGKTpD2FU6O8U9pzX0LDAVkLtq6jxTe35sz41Vdfffvtd0ePHqZf+fmFRUUFp556akZGtDO+gV36NSYciArD+PfiHujTohHDxTfHpFltWwj+3plPTsxMy7f17Vpf2ltiyUqrvKuJ+vK8idFcTuI5MXLocVWj5lPm8b70g16/+uqrS5YsWb58eYcOHRwO39c2nE7n8ePHzz///Msv/9H48RcXFORbYUUgmjvvvHPv3r1qak5OzmOPPabGJGD40Ucf/de//iUbdtppp/3iF7+Qr9EH4D+FRDBRRo5hccWMUPmoG1nBZlL0C8LoeRF9CWt2bTh3yZ2ZOcW2OpetUwf72NPCLZOttdc7XDw+e1C4GSW996Txu/LeDwrcWnB9/G6oZoDOmTOnqKgI9GZl+fYIZXsI1Hmfbdu2/eY3v7ntttsjQ/KRI0cLCwsAgFry7t27P/vss5NPPlmNTLTwLbfc8sYbbwjmwIkLL7ww+nlHzJurVq1aunQpZYouDxs27JJLLhk7duzAgQOtMCHyvaUfHl/FHVGiDoQP3yVJDQDTo/d2fuEBME9Whu1YnfvVT21Haz0C1vLD+mLC8eX3H19tOYeRkK0mbpb3VWrP5nM2RqJYvH/55ZdDhgz54x//WFJSUlxcHAjAVEVSfn7+WWed9dJLL/Xp05sBHUH9S5cuQy2nKPXp0qXL66+/HkFprZxFbXP0Vb/88ss9evSYNWtWeXk5AfgvnqNHj/JznHPOOddccw1TXsiKIpTD/lJif9GMKBeBIdvaagSOBTcY66pz2c/p6+xdFJ5eHd2NWeK2AJ9G7a6J+f0nDKOrrroKWBr7a+G9oqIC0R2uPnn22Weblo12jTQ2TYpf5Icflq9b91FuboGoorr6SJDuIIffffddYAwxMpOVRTRyeNq0aStWrOjWrVuQ3lGLFQ0lQivF5Jr3paUHWcHlsikDYNai9TWHmuSwZHBWhvvD7Zn7ujrDWR6jCWOaYss3sqt2WFGj3fiMW/as646v2u6I2T0BAPinP/2pP4CRA9XV1SyAEY8MWYYRf5HAPJIfBBAaDz744IEDB+655x41PkgYmU9pyBx/GpbfIOqcc8r8k+IXs2PHV/fee6/sF8uEIBiOYTOYDt5+++3gAKY62A6TR4wYsWXL1iArl0h0ac+pGr4w2uyVxS7LrR3OjWEP27aotzYHcI1Cr96+L3PlprCaB5fYiOJKE2z4YWUUxHM7XmhjH8v7eIpqrFrj/Fq8RvkXwCCBGSJqOaCX57e/vev999+vrKzcunXrhg0bCHz++ee/+93vsDwdOnRIpWcUzp8///nnX1Ajg4QXL17MvGBKwDp84cJnTJPiGumdmpr+nHTSSXGtSxTOGoTZk2WLrAt5C2OZ3XjQR+TCWBDAsTvv/I0k9g9EguGpfOPb3iTAEcL3ZZe25raHfx9iG9O1Q2HAAiNaHovJrs/hZyKAHx5a0zP7K6vizNuqI19jy35hSrnyyokGCYxufPvt/w1up0y52mBe6t69+5VXXgmw586dyziT5RBAqP74x5PZi1IjA4WfeOIJoYsKgl69eklK4l955RUryz+ZJUkDt99+u6qJMGliIHj++cUIW/5h30JLV+dKOPP4448H4UzYGMYc7XTXqUJ4Rm6r6j/x/uVG9hpy9KaXgtfiXrbesbPSB63g1F4nNpa151b9bwT+z//d4TxVFJc37I/+WOJdd92Vm+u7W5Pmg8wPP/xw2rSpwbuCMRaZbBAUGJlvvfXW4BlJRf5g95ZkTBkLFy5SZwQEzptvviEJUjLw7bffFhYW0mvBQ/6WlpaypcciAm2Zf9iiWWaj0oNtyQGm1LVrP5SvhkDYGP5tzVrVHD07a1gqCWHBHXrkvPHZ0pxOLIwN/Gp6FcvjdTvNUwPEYqyeVvOPcK/p8BPFWQ9VB/w5A9TcIpoZHcVYLgJJA05YayzuZCCTV65cqW7wIijAP8p5i2r8Xv785z+jMItoxi7ShiE7fvx4OSPQJASOX76UioB7qDNw+9JLL4XtbDjPnfukfw8NGGbTeMuWLf5kIiY8DCMBkAOKEK69KbWEsMqmNdc8+LszfhQExiyP3St9m/5q3kBhpPEjzs3hXpp1W+450rUT5s+r3xLN0eJFixaivMkWMt9jXrYIYJGLgbhgwQIVxojQhUFXs8gfXEekIg1ucRehtCuuuALjmWwMViXsXvLVEGD2IVV9hF+EgYxX4lUywlIXVZMOHtwnm0QudBMWBWpG/5JlTEFBkzWbkufPX3T55Zef4n2+//3v48QSfEaD2xgC9+/fj2k6kLFq0CCrzgXh2aX/UrteHhJGk2SpljLmaPnbqIH/e941gzr3uvyth41makHUvDy2jx7szMetydKEKI3V5QWTLXIP146y9C7SJQ5nnpdq1kfsQQ38VCEMhn/+85+rvbYSRqnu16+f1PdAAsU++eSTgdyM/v73N1VrFhlHjvQswUaMOAebmTTwQIOQDzShfPPNHka2tDzt2bPnm2++YULxb/C///1vA+WmTZsEWo4fr5ZJ6PYqhmHLeeedJ0ujfLfbLV/VAHNQ586diRGbc2LHW/SCrr322muY+qjlb397LRBEyQuvYKNarBpG31Z/JrkBptKIsKVhJ7PdVfeFb6S662/IPkMmpWrgsoHnbb9mbvDeRbA8xljdpXKe9ZXtf2eXshfQ1Ax7xn1164M3KVAq8pDpX6YyFu+4445AwJNkpoGf/exnEsMQsGb7+ONPTCmJfOyxh9URyfgWZjOG+Lhx46Q6DaLYrwpUCPEAGGO4eE444YQglKQ2E3aTsBf0MkkFsEiSWQiwcA1Sfv/+/XFuY5cI0yBdU4sijNUKPp977shAmkKQkklCF2B7T9JQyODBA+SrIRAGhrFmycwIYbwso3EJlkUlfqCk+MTqqfOG5fo2A4xtDn957JkK7Rn9jixcWmtps8rrttkg6iVvReMR6/hXW7t+/XrVmoUeW1r6HyqB9TAiS8UwE8HGjZtNszMiEbYyiVw33ODb5f7xj3+sqtNsFEfmASbLb4UAKP3rX/8KhlULs6FeaJibMB8a4q28YrBQ7X9wb/hwc98YSgsDw6/UbZZbSuS8O6uFy6uVliUvDQP0o8kPTe95ZgyXx0AxLJfMmY7BPku4PevVuo0R8PPAgUpV6jLZn3xy7wjKIYtBiWXI7tpVYVoU28LqiERAcXBCUo4ePVpFOHYv4CFT4xH47rvv2LzhkfJf1iLixd/Dhz3HtkwfOouDpFSe0XsxUPFXndTIiHwGjXIpblqUfyT77WvXrqUKkUQjb7rpJvVXM2QJA8Oeb2FLzLvrJmUPNZSV8q9PXHDTq6NvDQbjg8eFc7V1VmDlmlX7KZ8aD5nlyqzBNne9JPttXXjmNJERK44sgQDjQ12mqklWwqptDHrVyiWzoweq28LUiPKsrhIZnYhiCSfGblw3ijt0yMWSxH4s/zAOy3ppMAgU8eIvZLIX/gGBMaCLNYH9NiYm/hIGySpx8G0hlVKEMYbdfPMMaSAgkgI5YeJPKWOs2rS8/glNgEcalKQVBL8gBk1vX+MxWU3KBE4s6X131k/u2RbM0cK95Vt7/+62/GyLvWZVMs+184vDz60smBRko867crGLMplMOSgGk6M/yRRkgg/Z/szMzJqaGkmmLuFk5FtvvaUKYdRmECtTRWDSpMnskbIEFa9MKxyNmDLlagNZTF7pr7Qk7d69i/MbUuLR/rCcPQHwsmUrZBYUE/aE+Dtr1iwJQtQKtoVkjcG7wKLj4osvUp3nAPDTTz+tTnn+JVjF8CpnhdwWppRZWaf7l6XGsIeJ3LbZ0tXIFAkXZthKg+mfPm3FcofJgtkZl8zgB7BnOgY8Ur+9ufz01c4d4WLY37yJphd8iATpBMJHAgCyTp06+RPPmzdPbguTitqM8mwgAwbqcWVU0D/84eE4YVit2ulsMjGokRbDCG325CSAZS4c2gwO5OqpY0nmHwDAnFVSAUwVlMbjT6zGWMXwvU7FXOGuG+U4RS3FPGzPah5t5uk6VuUAvGpxxbSa1hy+0FHC9rLN7j2db8/4W33FjbbhzYmW/i8oyFUtpaDr0KGDkWGYcpAScsyhlMqwbApmcPwZZDw0Qgj7LxE5Z8eWjJwRKJkxHWiTSZbfhgHmr0Down1FnnCihabqiaHl/gCGVzjAPWbhagRLGOaiNjQ3eQgO6Rru9G9osX4NwIEmVTlAqq3Mgfz3WaeXu3YHogwUz1FhLuWQqdio161bJ7Z5ZKTFADtJqoAF0gYrF+Wwfaqut4Eog9vUlguZBDAZecUSZhBoFhvWOmRMTP79FVVL9w+LLTEFMByAe1ZKsGTTWuvcKbVir2tHi8MuVqrRNDHhAKtlnD181mlbOmeMwyoZK5S6kQNsnnrqqbBKkMQrVixTF7pIG1x/ZaoIGPxJiKRGMOz/qAAWZLhJGEpLnFeEJLdtxKQ9gQCMr4tFU4UlDH/q+ta3q+R2fS/Td9wkJt3QhVjnwKWZfRRi+wbXXuU1dJBhMXHiRIagIAU5ODAFdww0LRRlWLU2QwMsDfKcYtVNI9NygkSiI0SzUWwRAEEaEDyJk5jBCaykRg9garGE4Tdb6GzuszNNznBbabGmiZ4D52b2Vh221oWJYRpw/fU/UaEF9m655aZwGzZjxn+SUebC+vLLXxqPLr34YottYUlsMYCizjEJi8QGMi7lVI1khtQEeQXA+KtJYwGtYm5FhbYugUVHLK2Hyxv2yQtobbZGvRhuw0EwNBP3YJ81lU2pp8NsDaZUBKa6J8TQ4WoY67orPv04IcjtE+rHwDNp0o/UhrA8BoHqAAXnkKk0/mFGMEZpEY+OwDEJrGKBlp1IWtwwTFPR89W1un9FbR4jAKwe4Y4MwHQktBz2+vQ1bRGxEmM91ub9b88N8GwgczTSe0Gfx+zvrovgDNP99z/I3qZkI2hZvXo1J2/8zcWSRgbwEP7LX/6iAhivJvYwDbqrYVsYAOP/gPwP/uDVBKWsC0i//fZ78jU7O1s1qqNsc82ITJUBesF8ZFhgy9QgAbXwIGTRJ5kCGFPFO++8Y2CjlbpCY/jrBs7Q+uylF2T4NCgrFWiamHOAz1kpZaZtqv9OebUURBTjvqeiBenHub/+/fs9//wLgYYyq1PM2hiWVQAjPc444wz/XRbDtjB1TZgwIWTjLrjgQlVWi41imatnz55UJ19JxXDt39rrr58K+CVZkIDD0cJ/gUkhAtNAkPJNk6gCFdoggYcOHYqXiyl9yMjQuvTOhsOqQat/usk+fshqNEEMOfB/Mk7korzmAu2R+cMx+tesWQNgpLwiwBL37rtn4+uHO+Tw4cOFmnrkSPWGDZ+hGGOFVtFLA0AUD9dxNDem6X/DtjCxCBmDxcuQRbyyU83mKrOJbBX+m0gtsVGMjMIarE495CorK0N6c4oIKc2Jjt///vco2DK7aS0yskePXuoUQO+mTr2WLdnevXsj4Un1d+GQeSMOjBw5QgWwKIejx5ygCF5moPv6QmP4y4aDatG90oMdyFIpdThOHOiVVuAxazV7emxq2D8+opqwnXAROd4UcglKMYR5vvjiC/aNZalAQl3ZingBYJRwfxcRw7YwqPO3eMnCDYHp06fPmDFDgpCJQ90o5sATswwtFLkEGfRseoNGBCk4JJK2yRIM5auvgwcP4tC/OjFRMosF4ZXB4iLmGKaR/kcaaSr+LbRZbZshzLwWCMOhdenNjerpjYYe6U3XFxjq0K+txoFT0jkF6Tubvq/Rd9A0rDYg1liAjRo1ChgbMjKqPFBufvzxwBoY0bpu3SemJiWuOCerLBNp/4MffE++Bg+IWwEkDVWziSWlJZYzf7cnQIivNUqEQCNgQDirDZClGQLMPnyzwiDYyShOEUdsFTfUYuXVwPBmxvv+90e+LDY0ht/yrId9T3Fai7vUfAk61Foc6Jaex+6ArK3lJCujrQYw/yxatEictrOShxGPPezuu3/P+s1fAlMC6z0VZiAKBdgU6qbVUaa6gw0NohgLmSBm3nn55Vc+/fRT07xECmlGp4IMejXv7NmzZS41njD1tsLy2FBpBK+hdemWXpZpQQ7WRFB9m2RR/JzapP7mSuW9HM0RqnT1xfmFDNMo31L1IwkvglM1O3bsQAF+4IEHhGrtL3jBBshEWcW8PHXq9aboFbUuXPgMt9hIyclh3T//eXFYDeKSLRy85DUdVE3D5NEf9Ns1a9Zyty47wOoGEmQIfFbyzz33HNXt4jRzRYXoCG0I1AAmBbSJyy67lEt5Aa1KRn/Z4pbqNLtxMEcUSF3q5pyai/CRI0c45yDaDyUKi0rAct1f8VEJTMNBDjOH+FYLv0TmkT8IT2mGfok9e3uR7wYG08pEJAdig55b8qmCAQrxyZkABMGjRfnCnI6u4Q0034ktcorzGD3FqtIb1UUJE1Hc8lXk6mHvIALq347N353KM8uS01xvJ3sOnzLmr5qXcAclF59ZMqSavtoPPiTd151up7vTr0zJIohkfchKGIsOqGaYig1YLC79+2NKPcPKIQQMWoZ6sRIDFUNk8Ff/QvwlOXZyzHIbN24UjcQIp35nzFBCyDYgctlVlqXR5ZFYn0acI2crQ4G0379JolNsbvGdDLWDKqV/OSplkLBaiEoWAsPqZ+k9m8Np+WsLr1PzBwrjx4u9NLt5+EKW2zxSM1puShukiijQYW8y+qvjWyRlKWXK2lNAO5B9sRKw82XTZjZy2snd6XYruTRNSnIgxOx43O0740L/TUWTKV/ayVVbpn1vhUgUIm7Va4axHXUpXEHXCo3UVbQOB0LYtJxu3Pp8NKaaZOs0VNeicsCg9tek+7wvVTIdbg8c8OGzPfQ2VftYZ2IeS9W+6n4ZOaAxbOSIftccSC4OhFgPJ1dn1NbKvY26BpM+1vruh1QzNYUPB3WaOOq7BK5FXsrMzrQZSj7e0vfGFcDcXtlc49URXvbcoiX6pV1xwGR8x6T/b2ywfd3CR7NFqZUBYCCI9jUPaJnH5ZJBX6CqJTx8CU2heHXNr6IwIvKa7gw2z0KPfnRWJNYpU1u9eR06NuU4EGKge/d4fLJjt7vFrlcQbgDg8l224EM2SHYrSXEt3EoD4kFj0by8v+V+QU5Dui3ELxmPxuoyE4IDIX55w/bsoZZDJ3gPUhJjwbvcaqnKxhJ1ui0iXzQPD4S77rqXq9KDtLaoqLBHjxM4aWjFqSNIOTqpFTgQAsOFjS2Uv8+idutrhS61iyrcdTafv1eIHzEChlRWHv7uu33l5Z8D9RtumGLl2GAEtegsMeFACLu0OsHjUeBk6OinrTmgXtzhcYBN6xiPFnm9kT2y+vHH50VzN1082qbLVDkQegrHL5eB0uwS1MgAam+OjSq/EiF8qOVhw/7RYbhXr57+ndq16998p1fo2/xduXJ1fn6h9P73p9cxbciB0BgenV6s3BphYwDlpbdQsNuw9e2z6r0NVarz3IC0CG9l4Nz8kCGDpgT4rBGu+S+88AoatRDIr7yyhC8kBnK7b58/RIL0OoQuTStbDpH03Q1HEqTp7bYZO1recNY1Pie6gevMmTefcEJXwWekMZButzxP5I6HxvDAlhdo7eJ6Lf20KQd2NR5RbzgbFM+bRm+55T9RqkV3d+/+Bpt2m3ZdV27CgdAY7s0FWtId157xCd980E+bcuAfrm+U+t0DMppEpRIZsyBGzTPPHCo+0ZSZmfHNN3tiVrQuKEYcCI3hPp7bm3zHYj5s2BejqnUxEXJANU9wKY/3ap4Ii7KS7ZRTTpZklZWxXEnhD4tgl16xshYdCIsDoW1a3q86NF27gXW6vCHEVf1hVa+Jw+UAtzJwL7y8WYX74ttkmwDg8d1D0fju3U8QG8gAcu3aD9esWSfUb5bQkydPNHiJkJHLsTZt2oZmLvuOhMe6FuieEPVSK1mXzKsGuMVWnWW4tnLjxk2SIKRdXe0UuULSy5LbNhAaw7SvLL0rX7hu3l5Ki8nn59u228lb+xYXc6jvZvPpGb3j3ZcdO76SVRQVNd1qCkqxVIO9+nrX2LGjwDBIEzFyYxkaw8V07DOzTUUuSSNL3rBh02effdGjx4k/+cl18vobkYo9/MEHHyMXr1Q3e/YdBgJBhiF9/vw/SbLbb78FMtEkkRFIm2YU2fnLrCQ7RUuSBcOhdWn61vLbDvZP6nfLbutAK3Pgg/qdqkGrNKNbXBuAaAJaQI5awM+JJ56kVkc8mGHrWAAYwSsoBQ2v6l7UI488/u67ayQNa2z5QC9QjX8YfqCIU7UWCpk48RJJ88wznivv/J+5cxeIwmkn9KJq5hcoRTvREfxzqTHl5etk8y677IdqUiKHLcnhkZk9bXVfyEvJ36vfFfLqtr5dIjzzYOXutEqrJy8SmfMmbTtcZwMzqm+cP9Fr9V8rke4hccbwY489ybAWNSKa/OUY8Ni9e9enn26ADEyCH0GPEC4rGyabCoDFVjMxkJHr/PNH8jkFXtF+N27c/OWXW0RG/iJOb755uurgiUgEYCAcespBnstrLkUVXMopiuVVFaGjR49G8lMdDwFDLpFX/EWMo97LNqi1q2QJGLaE4WGZzL5NZi006nn1FU+H6srowbZOHW2Prg776NLqd9ftPXA4N9sz8Qd63nxgVElXm+FobiDi5IoPDmCc5LBHyBst+VHid2+Z6uMBD8HkjBk3mjJzw4YtIAQCLNjjx18scc58JOiBnAQwZMhGA5aAKNUhSAU9QMLB84EH7lG5wS7Xr399J0kCjaeffroU8uQVrt2inSjbsp3Cro6iTi5UBvSFQBry+++/L/Rw5oJLLrlYlpD4AUsY7pzWoaXHpdvKknhYb9vDl9vmLAuPCaPOL920YfvK9RXdswLq+X2vXf7xw8NLB6ufDguvliSlLnfulIthHGDHRff9Oob1li3buSLewI2qqiokHmATgCFVAE9ixkAvCFBfDfAQCMTQhQAU8o1y/MlEaRR+zz18FPUe8QqcXnzxf1UfMkqbNu1aRDRF8Q/AQy+IhRYtmgGNinwi+cSEWA7QX4S5oZGiBP7KWYBwIBpJnFCBgDgxtPIOxwBfjD3z1bqNvtfAIUTxfZfarKjHsgzm7kFD+k76wdkyxj/QvTBz+C0f/envO/yTUjvmDWeFuhi+LLMk+v7iGm34J1RWgTrKN5Wcar0ILiRwoHHPKlTKtyBkosDbbvsF1REGbwBPSnKRiolbblZTKZ9oJF5o0QREMwxmcOKZHdCuRQloywhtEVb/Ip9lI1Hy1aTED1vF8BhHic3tu8BmvnOrxb51yLL9zxW2E/Ntoa7d8JUHjLt173TFZWN8UX6h7l0c1z2x+dePfu6XksoRjzg3N+8O0M2GMVktPiAQ254DCQEnlqYG1ddQEWtgVGhDpHxlqwlA8hqcTNCjh7OKpmpeAZXcvpKlIZlFaQLkaOnITxmjym2ZhQAGKtEXylQ/aCxpkM+ykSyhZXxSBKxieKSjj/zGD8OoovHIzoZK6z284yLbBf3DgzGFA+NunQu/rfNdJKLWiDR+8L19F838wDBbqzSpFObaffkxF89JMntO7/SiOHWQOwDOOmsIein6akjrjqmtSzQMRVqAh9cgZGovSktLQbuIwVqmJokw55lFmWgKwtBNPDGBluuk0gWhVgjkGwYMkllsVgtJblDF/RuQaDGW1sOi0dMz+81z7WySA/asF2u/+K8OHsO9xYfb3vp0sj39YXhWLpbHXQIvj1kzv/HV8V5T3t2wYAx6e2o/L7N+af4oDD29O+u0KPvLkA1ybsl64Xl5fMPN/JGfLKGuQYMsaQ18KFyUBd749LF/uQASqxjohYAHAgonJshyHZqLLhqzZMky6IV4VzV/JLNQpJk7rH+f0b9hbRVjVQ7Tvmuzh6rq9Cx2m8J8RvS13XlhGNKY4uXyOKA09pq+Ok9cvm7jgTCbk2Tkjzg3+hRpd93lWYMTvwO1tbUCHtabqopBrGumGdHtBXpFKuHg2j5kErQQr1ixShaLTJYb4GgKwScCmSuhAmFg2KtOez8+hsmBjz+4673aXXjdYU8IY3VYj1ge3zTpgiAbTilv5Vpai89gk3uW9+6OAq8PbFiMbBtiqRjHsHpMUMheWSCKtMEtRCapAYxVIpdKz5JbzDJEXnRRkq2ERe/CwDAZZmcNZQA18cWeeXfNGpVHFsMovf9zhStcKxeFjx8/KtjyOKWtXL+C1fJjcW7XrKzTLXK7bcmys7NlAw4csGRAYQkts5hq6RDgEanKYda6ixYtNqxyZSEygLFKTCjQf/DBRyIemSyKItLfpi3zJnIgPAxfn3MmDveiP4ji5a7dHhf88B/0JaxcZb3C1qtZHo89vSSgXt1s5Qq/RQmdg914jIg+RdrmuionOTAsVVNwwl60FS5zvFEIRmRmz54mnqT4WgoDFQRcJCREK+UvXPh88PIZdXJrCrcw5gKsWYhfclEIC+bg2RM2NTwMYwgtS++iiOLsJ6rLI+7bz75nmzQsbBiL3eNAMKYxQ3p3iLhJiZnxl8dXcT5JtA3mT8/s3yZnlSJjDotMkRG08HHjkIWsWPGWEIzIzP79+xvo0aJx+RKR3DEybdpUedMIsCTVQG94xWQlRDHTBBvX0jeLyOHDg7kkGMpJqNfwMEzT784ZIS1bSIa76j5Xr1kMt28XDrH9YlTYMGb3mOVxoLpOKykIlJSM8ezhoe/4hLC77rbcc5KoI2VlpULWITyffTaEqASE8kwi9IZtLVWLpkxOOMEH/sry0bFVVdyfS9Lfg2mCjWvhJYoQZlNataX5Z0zkmLAxPCarn8OepYjirLlRiGJYI1wyrXuAkAUrF4/57nFNw8XfO8WTnCrP/zv+vs3etKqE7ehByWLNEr8ABmGh+vIKWjj8EOiXwS4FCAUxsPRXbh966FGZis+mcMzmL2EJY2gClS/iMVwJYkmGEL7gggvla9IFwsYwPVyUM1LezoN8mFW7LhpRTIFYuf54VXgumYLR/stjDNSptFGMEJ5Xv0UVwg/lhrEnnyDDEe8LARukH5owTtEGMzLCE5dJ4QtNm4H6wIH95W6Q6IX0qeQV/VxNJSw1dvLivBWk4xiu5JwiyKhLntMIkjFhk8Lw8ZB94ODh5Jr3kQlNY8ueNefYOw/nXSQJIggIl8x7V9i27A/DCUTsHhd3Lnrx7U/w92CRPOeiptVXBG1IwCwzjr2hCuGStALvDl8CtjRYk9BgEZVCxoq1LmZkpJ8AnjhfwQJVQAsQioWuWiILaXkmgekAt2o1lTAatfgADeVzxIKFtEEPV+mlvweRlDZ6dPJNi2p3IpHD5F+cc54qih9x/isyA7XaFMLhumSSpcXucU3DuJHdDWUm7yvb78tde1Qh/FyHZLWdIirx3AQwQJRfBKSBWNArz1cIbEPQt28Jd+IafjUW0v5atEpj0KiDL7xpDDOIyE6xQdCuVpGw4QgxjCh22B3Kqjj7uqrXY9JJXDKnnGXJysUSWvzjSgAC537fM5sO6ps6BxKvOf6mao5mJRwrIVxVdQC0MI5rapp2CiP47UQhlGMxL0osR4Lx7hRIBszqI8oB55iaDQVyOpJU8c+gRauUQqOWlEEW3vLoEg3wX3WrZSZF2O52uyNr6Kq6rWOPvS7PozvdNSs7TsDiFVlphlwV+2z3KIsaPqHIAcau3vskinJsBTm2olxbRpoNDZzPdufneHIX5nrCxKTGs6D642k1a5goRXec7uqtBdcnlzUr0A+BM8a2bdt27twpvD4cjvQePXpxaZbcTA6UMVbxTAoct6Q0MHz//U0nlmNVeOuXEzmGaeuIw8/Ju/KETHYXG7WgiLskrulIGUyGxQdshPmHHvfNj+wJZ/R+On9CWIVoYlMOYD8TK2cAjPdlSEdr00ISKjJCXVr04cW8CTZ3rQiLZdtPj8ZGo6ZM0Ns+AUzfJx19VWrRHva66x7KC7gf7iHQj2UOLF26TPiBsZQYMSKZdtoDdTEqDOO2dV/2cGfzh8WB8bz6rWucXweqTMdb4cALNf9c7vpWmrJg7+Lc0UnkmGWlj21FgxAWp5QQwvhdJvWWkuRhVBimFI4QtzRuZZ1b9bcot4tl49phAPP+5Oq38KIRffc6dRSHvEW0HTIqsi7Li4EQwsl4VNi019FimEL/0XF8C43anuFRBfUTEQfKjixuqUXXLs2fGFFJOpORA9jSxD21JGDfbjUTmrEdsX6PAYa5HnV21pmqRr3ctff+46tj3dTULw9rQoW7VtGi6xbnjuFS0dTveav0kG/EyBNRSXpU2JRPMcAw5c7p+IOStI5yuxjtelbtx2w+mVapI005wGYS1gQfgD1Xz3bXWrQpryKLFNf3kBd/kiQ9Kmza8dhgmKLLCybLo8UeNtlz2T3m4KtprTrSwAEMgdNqVqubSRAs6fAjA5l+jZgDnIhiDSw8QEaOLI24nATMGNX+sKE/Xq+PJaBXxHvEstt1tHiGtqkaGGV45WBDn8PPSACTmkoeHYbOttWrestH8h4zNOVezOQwpeOkZdhq4vqYzpULVPaZNqI9R2KI7nN4kWrHwuONZXBquGQlzi8LbuWTOK2KSUtiiWEaxFbTuIxuvoWxLY3wgKqFMWlr6hXCJlyXw88y0/mWwW7n7Kxhehmcer91/HoUS11atlL1wSQSGJfYs7cXTZMEOgAHADBKCszxARg7VnrnZQVXa/5oDljnQFwwTPVZh/5oGJ3AeHPe9egz1huXwpSo0B4JLG759fYTdpWl5a8tvC6Fe627Fg8OxAvDHq/9ynm0WBUyhA8U3ahNXB4j1hHPzVIqc7SqEo/x3R7KjPF6WLIMoO4vvIFXxIuIZLwSBtiMYEnWDgOc7McKTcc1gNvhrx+PLscLw7QVByN/GBPPCG637h+cZyireoltJAOAWWXE49fVZbYHDsQRw7APGB8tmi4ksOAmYUbw2GNL2qEz5q1VK7znGZr2z2GIWANj7dNmgvYAtjj1MV7rYUNzDZZqz/B1O9mFejH/8vawPMaCxWGGisZj8l4OyQFthTYMFf0aLgdaCcM06+IjL3AWosUg9jpyleddwamJcNudRPR87mzC8eV4cUj9mcbjyDHTMTjKy0CTiAm6qfHjQOthmD6gP3MWQjpjEuOxeLlrZzpOS8nRjHH+tqo3PScZ7N4rv7w/o+jy/JxRN+YOj9/vqktuPxxoVQzDVnGTnlEoeW3XH3QcH6t7GxPh9/OKXy6m9Plg0SovgF0pr3okAv/bTxtaG8Nw1nxx6BHIdeMyTnoub0Kyn5hl82xS1evlDQfldRxiPGECKEsvXlkwqT2YANoPhNq8p22AYdHnOcfevqvuMz5i0GKV6FWtOTiB33WbsyaCBqA888kLbsw37ZfWnyNgqc4SkgNthmFahrdD2bElBFQY8+pVOOvn55ybRCtG0Mu34/j0lGGZ4OmO28kFCSvyLtNHkeCGfmLOgbbEsOiMqUAmyXu5j/u+7LNm5JYlsvLJ0oCPMPMNVxP0etUKLX5jPmp1gSoH2h7DtIbrPq49towFpM2eaSaTa/lqNh/dTTQ5hh7xbO0/+S6hQXOmR15VIkWW9+pw0eEE5EBCYFjwxWPIrX7b8ym2lrZcUgUk+OrfrKzTr8o5vW3FMoL3tdqNP69d53TXBZh06kvS8vi+WSqZ2RNw7OomCQ4kEIZFgzzfGar9KDCS+Vyda1xGjymOgWOyTm1NCzbW5lV1255xflnesB+1mdaaqQwunFheyT1/fPYgPcI0B1qHAwmHYdHtIEiGQOyy2mwNSOYpmaeMzOxZ5ugdD+GMyP28fs8bzoon6nfgWWWzpfvrCM3tqWcnSaO3dUatrkXlQIJiWDQR7fpXNWsqGo/4m4sEgQfMPKjftgZ8oaZm9CzN6NY7vbBfRhe+IyNorP/Ftry3oerrhkM7Gw6vc+2d59rpvanTg1sKMUhdUaxc9/4y+6xYffPReoM1peYAHEhoDItfCIvXUzXrHnFuDCQGBVkTnnnxQtoTac/iZoxiu2NAWmGe3ZFjz+ik+DwedNfUuF1VbufmxsOH3M7yhkNMBDYbB7nsArQUYIpb4psVAdvsrKHX55wZwXzhaZ5+NAdiwYEkwLDsJmL5qbr1y117goNZ0hPwAVuNNQsHgqukbSrKO0FMz+w3MWuAFrySOTrQhhxIJgwLNnHT7bsNO16p2zyvvsIrOYPpulFyVsUtUn1mZt/LswZqa3OUXNXZY8uB5MOw2n/U7E/qd79Xv6t57WpJE1ZLUMM+oe0Rtm4bN07ac27KPOXsjO7nOHprhVnllQ4nDgeSG8MqH7FIbar/bkfDoS0NB9c17Hur4ZDXkixIvNhWqX1hD1bFG1bu/mkdS9O79k/vdEp68aDME+Jh6/bVrEOaA7HgQOpg2JQbAPtQYzXWZlKPumsNNPn27OK0XIc9nb8argbm6Ndk4UCKYzhZfgbdTs2BiDkQ3zvxIm6Wzqg5oDlgkQMawxYZpck0BxKUAxrDCfrD6GZpDljkgMawRUZpMs2BBOWAxnCC/jC6WZoDFjmgMWyRUZpMcyBBOfD/ASqhLk1qY/wnAAAAAElFTkSuQmCC;" parent="1" vertex="1">
          <mxGeometry x="574.58" y="394" width="67.33" height="32.93" as="geometry" />
        </mxCell>
        <mxCell id="Z4dEkWU-I7dmtToVSUjf-184" value="" style="aspect=fixed;sketch=0;html=1;dashed=0;whitespace=wrap;verticalLabelPosition=bottom;verticalAlign=top;fillColor=#2875E2;strokeColor=#ffffff;points=[[0.005,0.63,0],[0.1,0.2,0],[0.9,0.2,0],[0.5,0,0],[0.995,0.63,0],[0.72,0.99,0],[0.5,1,0],[0.28,0.99,0]];shape=mxgraph.kubernetes.icon2;kubernetesLabel=1;prIcon=deploy" parent="1" vertex="1">
          <mxGeometry x="541.58" y="352" width="36.06" height="34.62" as="geometry" />
        </mxCell>
        <mxCell id="Z4dEkWU-I7dmtToVSUjf-5" value="" style="rounded=1;whiteSpace=wrap;html=1;strokeColor=#0070F2;fillColor=#ffffff;arcSize=24;absoluteArcSize=1;imageWidth=64;imageHeight=64;strokeWidth=1.5;" parent="1" vertex="1">
          <mxGeometry x="127" y="140" width="198.87" height="170" as="geometry" />
        </mxCell>
        <mxCell id="Z4dEkWU-I7dmtToVSUjf-8" value="" style="image;image=img/lib/sap/SAP_Logo.svg;editableCssRules=.*;verticalLabelPosition=middle;labelBackgroundColor=none;verticalAlign=middle;imageAspect=0;labelPosition=right;align=left;fontSize=16;fontStyle=1;spacingLeft=0;fontColor=#002A86;spacing=0;" parent="1" vertex="1">
          <mxGeometry x="139.42" y="155.19" width="37.58" height="20.15" as="geometry" />
        </mxCell>
        <mxCell id="Z4dEkWU-I7dmtToVSUjf-9" value="&lt;b style=&quot;border-color: var(--border-color); font-family: arial; font-style: normal; font-variant-ligatures: normal; font-variant-caps: normal; letter-spacing: normal; orphans: 2; text-indent: 0px; text-transform: none; widows: 2; word-spacing: 0px; -webkit-text-stroke-width: 0px; background-color: rgb(251, 251, 251); text-decoration-thickness: initial; text-decoration-style: initial; text-decoration-color: initial; font-size: 14px;&quot;&gt;&lt;font color=&quot;#1d2d3e&quot;&gt;SAP C/4HANA&lt;/font&gt;&lt;/b&gt;" style="text;whiteSpace=wrap;html=1;align=center;verticalAlign=top;points=[[0,0,0,0,0],[0,0.25,0,0,0],[0,0.5,0,0,0],[0,0.75,0,0,0],[0,1,0,0,0],[0.25,0,0,0,0],[0.25,1,0,0,0],[0.5,0,0,0,0],[0.5,1,0,0,0],[0.75,0,0,0,0],[0.75,1,0,0,0],[1,0,0,0,0],[1,0.25,0,0,0],[1,0.5,0,0,0],[1,0.75,0,0,0],[1,1,0,0,0]];movable=1;resizable=1;rotatable=1;deletable=1;editable=1;locked=0;connectable=1;" parent="1" vertex="1">
          <mxGeometry x="157.72" y="150.68" width="140.27" height="35.32" as="geometry" />
        </mxCell>
        <mxCell id="Z4dEkWU-I7dmtToVSUjf-16" value="" style="rounded=1;whiteSpace=wrap;html=1;strokeColor=#0070F2;fillColor=#EBF8FF;arcSize=24;absoluteArcSize=1;imageWidth=64;imageHeight=64;strokeWidth=1.5;dashed=1;dashPattern=8 8;" parent="1" vertex="1">
          <mxGeometry x="133.13" y="187" width="186.61" height="100" as="geometry" />
        </mxCell>
        <mxCell id="Z4dEkWU-I7dmtToVSUjf-167" value="&lt;font color=&quot;#1d2d3e&quot; size=&quot;1&quot; face=&quot;arial&quot;&gt;&lt;b style=&quot;font-size: 14px;&quot;&gt;Application&lt;/b&gt;&lt;/font&gt;" style="text;html=1;align=left;verticalAlign=middle;resizable=0;points=[];autosize=1;strokeColor=none;fillColor=none;fontSize=12;fontColor=default;fontFamily=Helvetica;" parent="1" vertex="1">
          <mxGeometry x="177" y="196" width="100" height="30" as="geometry" />
        </mxCell>
        <mxCell id="Z4dEkWU-I7dmtToVSUjf-166" value="iframe Kyma App" style="rounded=1;whiteSpace=wrap;html=1;strokeColor=#0070F2;fillColor=#ffffff;arcSize=24;absoluteArcSize=1;imageWidth=64;imageHeight=64;strokeWidth=1.5;dashed=1;dashPattern=1 2;" parent="1" vertex="1">
          <mxGeometry x="140.13" y="229" width="169.61" height="35" as="geometry" />
        </mxCell>
        <mxCell id="Z4dEkWU-I7dmtToVSUjf-168" value="" style="shape=mxgraph.sap.icon;labelPosition=center;verticalLabelPosition=bottom;align=center;verticalAlign=top;strokeWidth=1;strokeColor=#D5DADD;fillColor=#EDEFF0;gradientColor=#FCFCFC;gradientDirection=west;aspect=fixed;SAPIcon=SAP_BTP,_Kyma_runtime;labelBackgroundColor=none;" parent="1" vertex="1">
          <mxGeometry x="144.67999999999998" y="228.97000000000003" width="27.058695094019697" height="27.058695094019697" as="geometry" />
        </mxCell>
        <mxCell id="Z4dEkWU-I7dmtToVSUjf-47" value="" style="endArrow=blockThin;html=1;strokeColor=#5D36FF;bendable=1;rounded=0;endFill=1;endSize=4;strokeWidth=1.5;startSize=4;startArrow=none;startFill=0;entryX=0;entryY=0.5;entryDx=0;entryDy=0;" parent="1" edge="1">
          <mxGeometry width="50" height="50" relative="1" as="geometry">
            <mxPoint x="330" y="251" as="sourcePoint" />
            <mxPoint x="450.0799999999999" y="250.73500000000013" as="targetPoint" />
            <Array as="points" />
          </mxGeometry>
        </mxCell>
        <mxCell id="Z4dEkWU-I7dmtToVSUjf-201" value="" style="endArrow=blockThin;html=1;strokeColor=#5D36FF;bendable=1;rounded=0;endFill=1;endSize=4;startArrow=blockThin;startFill=1;startSize=4;jumpStyle=none;jumpSize=0;targetPerimeterSpacing=15;strokeWidth=1.5;entryX=0.5;entryY=1;entryDx=0;entryDy=0;exitX=-0.001;exitY=0.31;exitDx=0;exitDy=0;exitPerimeter=0;" parent="1" source="Z4dEkWU-I7dmtToVSUjf-113" target="Z4dEkWU-I7dmtToVSUjf-5" edge="1">
          <mxGeometry width="50" height="50" relative="1" as="geometry">
            <mxPoint x="85.52999999999997" y="475.81" as="sourcePoint" />
            <mxPoint x="205.52999999999997" y="475.81" as="targetPoint" />
            <Array as="points">
              <mxPoint x="226" y="645" />
            </Array>
          </mxGeometry>
        </mxCell>
        <mxCell id="Z4dEkWU-I7dmtToVSUjf-33" value="SAML2" style="rounded=1;whiteSpace=wrap;html=1;arcSize=50;strokeColor=#188918;fillColor=#f5fae5;fontColor=#266f3a;strokeWidth=1.5;fontSize=10;fontStyle=1" parent="1" vertex="1">
          <mxGeometry x="171.74" y="518.17" width="93" height="16" as="geometry" />
        </mxCell>
        <mxCell id="Z4dEkWU-I7dmtToVSUjf-200" value="&lt;font color=&quot;#475e75&quot; size=&quot;1&quot;&gt;&lt;b style=&quot;&quot;&gt;SSO Session Token&lt;/b&gt;&lt;/font&gt;" style="rounded=1;whiteSpace=wrap;html=1;arcSize=50;strokeColor=#475e75;fillColor=#f5f6f7;strokeWidth=1.5;" parent="1" vertex="1">
          <mxGeometry x="177.99" y="356.32" width="120" height="12.74" as="geometry" />
        </mxCell>
        <mxCell id="Z4dEkWU-I7dmtToVSUjf-205" value="&lt;font color=&quot;#188918&quot; size=&quot;1&quot;&gt;&lt;b style=&quot;&quot;&gt;Authenticate&lt;/b&gt;&lt;/font&gt;" style="rounded=1;whiteSpace=wrap;html=1;arcSize=50;strokeColor=#188918;fillColor=#f5fae5;fontColor=#266f3a;strokeWidth=1.5;" parent="1" vertex="1">
          <mxGeometry x="326" y="625" width="72" height="14.5" as="geometry" />
        </mxCell>
        <mxCell id="Z4dEkWU-I7dmtToVSUjf-198" value="" style="endArrow=blockThin;html=1;strokeColor=#07838F;bendable=1;rounded=0;endFill=1;endSize=4;edgeStyle=orthogonalEdgeStyle;startArrow=blockThin;startFill=1;startSize=4;jumpStyle=none;jumpSize=0;targetPerimeterSpacing=15;strokeWidth=1.5;exitX=0.5;exitY=1;exitDx=0;exitDy=0;" parent="1" source="Z4dEkWU-I7dmtToVSUjf-52" edge="1">
          <mxGeometry width="50" height="50" relative="1" as="geometry">
            <mxPoint x="820" y="750" as="sourcePoint" />
            <mxPoint x="688" y="600" as="targetPoint" />
            <Array as="points">
              <mxPoint x="560" y="510" />
              <mxPoint x="688" y="510" />
            </Array>
          </mxGeometry>
        </mxCell>
        <mxCell id="Z4dEkWU-I7dmtToVSUjf-170" value="OIDC" style="rounded=1;whiteSpace=wrap;html=1;arcSize=50;strokeColor=#188918;fillColor=#f5fae5;fontColor=#266f3a;strokeWidth=1.5;fontSize=10;fontStyle=1" parent="1" vertex="1">
          <mxGeometry x="597.81" y="513.17" width="48.19" height="12.74" as="geometry" />
        </mxCell>
        <mxCell id="Z4dEkWU-I7dmtToVSUjf-199" value="&lt;font color=&quot;#475e75&quot; size=&quot;1&quot;&gt;&lt;b style=&quot;&quot;&gt;JWT Token&lt;/b&gt;&lt;/font&gt;" style="rounded=1;whiteSpace=wrap;html=1;arcSize=50;strokeColor=#475e75;fillColor=#f5f6f7;strokeWidth=1.5;" parent="1" vertex="1">
          <mxGeometry x="535.57" y="461" width="61.43" height="12.74" as="geometry" />
        </mxCell>
        <mxCell id="EQLkxKmraLCGRCHlAuL3-1" value="Service" style="rounded=1;whiteSpace=wrap;html=1;strokeColor=#0070F2;fillColor=#EBF8FF;arcSize=24;absoluteArcSize=1;imageWidth=64;imageHeight=64;strokeWidth=1.5;" vertex="1" parent="1">
          <mxGeometry x="455.80999999999995" y="291.81" width="125" height="31" as="geometry" />
        </mxCell>
        <mxCell id="Z4dEkWU-I7dmtToVSUjf-179" value="" style="shape=image;verticalLabelPosition=bottom;labelBackgroundColor=default;verticalAlign=top;aspect=fixed;imageAspect=0;image=data:image/png,iVBORw0KGgoAAAANSUhEUgAAAOAAAADgCAIAAACVT/22AAAAAXNSR0IArs4c6QAAAERlWElmTU0AKgAAAAgAAYdpAAQAAAABAAAAGgAAAAAAA6ABAAMAAAABAAEAAKACAAQAAAABAAAA4KADAAQAAAABAAAA4AAAAACiWSQ0AAAs1klEQVR4Ae1dCZgU1Z2v6q6+52CGmxFGzoERUEAQEUUIIAgKZD0+DRvjEVdX8+GRuGY37Boxn/nMiuGLrpvoauK6JhvWAFEDCgEPQBRBIjAwconDMSAwMEef1V37qy6m6an3qrqqu/qaef3xMVWvXr3j/3713v96/8dLksSxH6NAoVLAVqgNY+1iFJApwADKcFDQFGAALejhYY1jAGUYKGgKMIAW9PCwxgmMBMYpsE08GeREUYrtEU/4Y2140c9F9V/3cnZk8Np8I4TeAm9zc0Kt0N0TT9R/kT1VKMAASkdCgIsejp47EfOvCO09HD2lZNodByWuD0vBcCpoJpfr5OzVvFtJucTmUy6q7T0mOPqPFXr2svkqeVdyfnadoADP9KBhLtYqRcJS5KwUfj98aGlwx77YuQSBOP7CNwycXUhP96oDsiVMwO16aF74H991wGs33unkHSW8w8l0LBzXdQGKOXKv+M1RsemI5N8kHvtEPBnHJe/kneliL9P3wlIYeB1qK6+1lc9yDryI91YJFdX2iq48v3Y5gAKX28UTOyLH90WbNkYbt4nfyLDi7ZbMjpkitP19eZaVJ1duqK1sqtCnxlY6zjlogqNvF2ReuxBA3w7ueTm0+wgXbI6F9kmyiFNQoGwHp/qvwhIM5X0K8/qQd3KXQmpnBqjCXJ6MtS1s/QsEcMyTmCmtwmUHVlINKvW9JV/C+RolEaXPEwb8yDdphL17p2dVOy1AwVbujBxfEz60SmzIZAW/AMT4mivjm3eOspePsJV7OVuvVNL3SSl0IhbAtL0tekZZtWXwxr8Tuah0pS65VZI4Tuh1p3PESKH3lY5+nVWi6mwAxaz5XrB+R7TxtfDBfbHm9KAZH/64fM0LCx0Da2wlFbay/rzH2y7Rd7eX9bWVKLK2DDjtH3B0LhY4Hms9HW1WcvklsUEKNHFivXjyj5Gvw1JImdrTAKvSTnww9ztrpgn9ZrhrOh+T2qkA+kJg26vhPTuj5zByxsdbHmb82jU+Tt612HP5aL50gnMAkhMotHCKwleEkhXdFi4+CzesE4++GK6PgxUJplkRpb+Y1+9xjrjPMw5FdJpf0QMUg30m5l8fOXpn2zpZTWNYHlcGFfpzCB8SJ0Ctc61z4HB7ZX6H9kD03NrwfvAnrbE22AUUi4DBj03+0uKf2YveKfNdNZU2r4UfVb7IUtwA3Rs989fwoWVx1TpmPiNEVEYR6pvrHdXD7RXjHf1HCT0KcCDx4e0UT22NNJyKNcfZlXMwGRhFqhTGuo91YKqj/1VCPyNkKdg8xQrQxljrm6F6LOhQZBpUrcfV4NwS7yQs3/2FyuFCz2Lh2D4XGxvEM19ILUsCn8lsgDGkor/4Dhe5L5vlHDLYXl6wENRvWFECFLwmZk2Dy198yhQxvy73TgVbWbwLn8LM7Iocezz4qaw1MwhTLgod6iPuy4qUNy0mgGKEtoqNi9rWY3hSLugKiwm5Yba9zwPeiX1sJfpfanE9Bav6+/DeleF9BiVCzKZYZ9aXLRgr9C6WdUMZkaIBKJa5PwV3PRWuQ7v1WTGFy7zXOWyM0AeyQieDZvKHdEYK/TG4C5T5beQr5YNMfkpeI8+9jsEPe6/MuyxItk0rpQgACuv57wI7XjbAbiqDtNhVO1GoGuus7iI+Fop3wYZQ/ZJQnTJTag020kGicfZKrCr/XDK1KKbSQgco5PTHW9evjp7QnyHwFJaVRa7Rj3snFi+XqQOslI/A/zREW34f3L44uENf1ybTiuPm23vBrD/FcVHKkvOboXABionh2cBni/2b9KUBkBtCAFx+fuqb0olXc1Moeah13V8ih+EQo8MLKTBd4rniHtclhUy3AgUoJs4ft763UjymIwyBxBiAx5w1013DC38mMIWwzDND1b88WCdbp3SNamAJxgk9X/JNB7+eeaXZKKEQAfrnYN2Toe3wrtCbAKTwfKHv3a5LZ7prClDNno2hMlumwpv+e9uHRr7zV33Tb3INLUBKFhxA/6HlHX2ZVFmbnvdcdZt7ZBcRg8xCMzk/JP014a8UO7C+RQNr0eKSaYWG0QICKLSbt7W8BRckLToqq9X3HBf/unRO8hiw65QUgAj1TGCrbIjSXvGx3EO62l52S0Et94UC0P8MbFsU2KJHPi4KwfMB99jprmEpx4NloFJA2VMAlQj1aSJxmWfiHZ7LCkQJVRAAXdy67hlddh4G6Oe9U4rappwY/vxewIcB+14wleo3Aw6mTxeGojT/AH0q8Mli/2b9ZR1m9Bvdtfo0ZU8NUgDL/W7x5NjmPyK/lhiKpWyevd/K8psMlpm9bPkEKL7m+1rWYEuGDjrh0P6E95ridcbJ3shlWDKEp7ua39KxgACjUDB/WH5rfrWkeQPoB5Ejz/m3aKFToQ58cO7yjCk0uTJDZBTO69BDrQjtXxrcqqXRwyiA7/9X37V5FJvyA1Cgc2bLKvSfusQodCkKQ1zhoC3tlsAmcmPzCi3lCcYCtvtH3ONvd9WkXUUmL+YBoFAn/UPbe5pfbVwD/3TJzCLyuMlkAArhXTjv/SqwdVnoC6rdTplH3vROm+sekfvW5hqg0HT8nX+95twphRe5Rv2yZHruCdHFa5Q9H9o+hD+UDh3yIqrmND4o0PlIYDMVnUgEaX7C0KkDkGw+gtbzJ76pMHjK6nraDwP0w8DHGEHawyymXQjdlsVK4kXDfUFr7kTni3pbQrZJl7PyFUZTtosS4gGkBbhHYX5BY3K51udoiV8X+vIf/R9RHcAUWrxXOo95JOUMiPoVQYT9fuu7OoP1jm9Gzux5uQCojsyuoBN7ZYp9d6z+kBfdU4j2ckArmkOZMmQ5k5myzoOiq7/0bySXDIwZEqHCwNzJ0FloCIYK5de+meC7MEaqtmGtR+IToW3YC6V6lI3b7AIUVjXZ7zh6ktR3Kuhc5pvGVvZsjGvmZSIy2Usl12EGoWIUk+tP2zbCHJV5RfolZHeJx96DZaGdpCUTfQZkGd+pPzaF8FSfH8UU+2XF3VltZ7ZmUMydOuhExzaX3czmzqwOrSWFY4x+X3qD1jwK+xNGGWNtSV3UQrIF0JcCn2NDDHXuBDpfLZ2NFYTaIJZYaBTASL1ecj2dH+Wdy8J1z7R9kD2MZgWgcYX8FiqhsbI/4Z3MpCIqcQo2ETLTf3ivJgUJNBiJsD+tCe7NUuOzAlAo5KnNBeuJkGv5cjugNoklGqQAFJ/wtG+PYNrhJQzrzf4NMOh3SLXoxmKAYqr/+5a3SLkPrYUN7SfO2p94rrCo5ayYXFMA4ccQeZQcXEyiSKw993o2GmQxQLEz6/XIIXItADoXOocsYV4g2RjDHJYJ99xFzlrSXi9jVAoj6qDlbbESoLC2vxbcRUEnFwU6f+GbannrWYE5pgCcx//Vd/U8oT9lHuWdjwS2wKZtbZMsAyh0tne2rIYBV9U+9ET2ePWMz+/OAVWr2G3aFEAsgp+XTEOscRKjSEHsUtgO0y6cfNEygC5qfY/qXoAJFf7YedwzQPaZpWRIAQj128tvg+JJVQ7GGhamn/k3WWhhsgag0Cu9Ht5HWdylMOJVMLFdNZCd4BYzDoKLkx0BBoAExDIhH6WXYgFAoV+AmyC5WwATPmKkIw5lei1jb5mlALziMRbYUZM9tXlykxB6CAGsyYUeSIBHqVWTqAUOy6uCf6Mu7gjY+WrZ7AIJUJFM2eK6Btpwzg6OCleafVoKHo62NMVacRjuV9GzPCefjJj4NXAiTiJFMMpfls7KNuXBjL5dOr9v028QMCfRAOUCqP1x6zpLIhRl6iyCxZ2qlkcT3/LOyKXrtYpGRXT7dcup11p2nSoTcfqyHHM+tYsQL/eOgAXSFC5LXrt4H3yRcuDtAADc4F9LcndozFLPxAcyPlUsoyUe0zjiqJCTPFIQC32Sa5BMR/ZLRYGdR79c/PYLy/Z+AAkDebFEpvrnhJMDMEH+U6pCOtY0bOx+I1SfqvJMn3/LPQxjTcXA2vAhxObIsIKMAIoI/nLkBeJEVHy+sDqw2IhGxgYr+LFQMxcVHDuOcgfjh9cbeS1VHmVQvtP2LqKypcqb0XMwEjiVAfEdVBhFA1ZFj60MIYJuRr5OGQH0/sAmir8Stg67L2N6JYPDjtj6bx/d5XB4kB8YlTbt45oDBt9NmQ0oQczApW0fZogS/YqgdZruRPBbNSeq1A4GWv91/afpA3TBuT+QReMzAmQz5zzIkjtryjctTX8+nDTJnWiWPj1kIUZBt0eDn/2gZXXmq63OEGDEb3EMUE2iyI+UH7Vt0Hkx5aM0AQqrJo46JT8a1IctfylrZRkSFPim7Wzi+vxFc0BaVycdI9LV+Yzeg6P9TfhLAMVaG4+qesR4ix9l2yEZCIFaNJPdS+kAFPq21wKfU6yaUniJa9Q1riEd2shudCmw7rhGKIQtB8IHLduVhmXt9fB+bNS03Fae6BwiECIqDDmJ4pAW7F5Km8dIB6CfRo4jjDw5fUItP8c1ggWjS4yZkYvF21YoDCiZ+TxLSj5IKwUYhZZgTtva7GH0B57x1EkUQR7T9mg2DVBZtRT8nPxQkMJkI7PIwbwSibXovQWW9E/brGJJlTllRuvbCBqsV2m6zzCJvuWbRcXG8siB9GxLpgF6MtZGenyiTXBZQojudLvWRd/73d/eg4IpZechNlnLkuJ4NPhupocY/dZe7uyP0MwqjMY50f0bQwf036U+NQ3Q5/wfUwqSovc4R7A4yBTK6CZBwaT7vP0hFE8Ws6SuBwObYI20XLSHU+Us50CS/YPd65VQXRqfhDmAoj+QB6nVF+lx5O0QyM/fxiYTYpDFLClnhyAxt2Wl5XuJ4HVPOpEAM7DpYPk1S2hzAEV/SBMwfP3fL/222YpZflBg+Y2PTyirikQMa+YtZUnRAIhNQ87+F6IzWDgckJIRNgeuQuoyeTvUCOrEVPcmAAptFjxlVNMnuA0cSThK6JmqIvacQoEBpT2A0Rurx5nAKMdZyJJiNKElVaz2aWuCyI5hK/1QW7kqHXXBFdDshG0CoJsjR0ndJ9QKN7vHMLO7ajCM3wKjv7r6ew/WmPGatZolxSzzhH8jNjxaiNGlnknk3jroRBFr3DhxkNMoQAH8deF9qqLRMZyVO5ZNnyq6mLwFRp+dds+ScQtSqJw6FmshS4q57bAUxOled7e807GS9O/gy4allRTn4VJoSjIzCtDdkaMrxeOq9R3Nv10YAF+B9PvB3oxTAHzbP4254e1rHh7jMUNMsKTr6qzSkqIhsDbNP/d/pgCkNYBYVHEWNfkUDq9wcSLTtVIMARTaAShaSfEIbnVXMMOmFmnNp88ZPgks6ex+tSZYUhjuPz0Eo6hqrjJfufwGrE3wkYMobInYNMTRm4w6hnauMeMnagigTbEgVTmPrQUsylJ6UNB6S2FJzYlNzQEs91b5ksqiTPQMQoDDVV6rkQbTB9m7zbb3UWVG+fgGdkWOqdK1bg0B9Bn/Rsr7kni7mzKHU3KyJDMUkEX76x+B2GRiHk34kpqpSCsvMARpGDt5MowUAr7lCqGKZAshWNfHWgwKZIb2JPGnl0IZQfYnVPkAmchSrKLAO3s3L9j4srnSyjz8hIFcmez+nPkPy/ESzxWPecZn4gAEv2FqiO3D3e4wEssj9QxKZUegQcCWqMxJwErQoQBY0hWT77m8Wz8TU6mlvqSY/HAQ9ZLW9ZmITXC2J12csDGwPmrI4TU1QN8I/g3qKxUdwU0z1xAVTbJxC4z+4bqHruw52ARG0Q7rDPcY6KfCdTiUGjr29Dp4lwfxHST1u7zwqP99dSLtPgVA4Zu8LdakehEzPw6872cvUaWz22xQACwpMJpflhRijXy8aloYxa46WJVUSgbMzQZLSwFQ+CaT5k3M2NOEftmOC5CNwS7SMmXRftq9v5l0h7n2W6cllfEUPTOpeXl6+5j/t3QOxTTP8UZKU6/dKhJsCx+EQKcSxOA5318woU+GvNYqRVQls1uzFFh46YwzscjifWtMvSjtPMKPuihzsUnBAPYxN8dazXqu9bWVYBKFsapDy3n76vCXKeN26QEU+nmoAzoUGt+nd72jergZ8+ZWsRG7s72GzaqqGtltggL+IRxfMTBxm/sLwPR+/wc42wuBmYw7YFTavN91j1wc+EQ107XG2jB56asI9AB6ONq0QWxUFYrb4fYKU+v7afEstvaRklbu6dsJanRapEJKmxRQOMLZGa8b31wOCI7mS+VVPilcD4CEjcGYvPRtPXoAbRDP4CAcyHHJnanm3dc6zX3ENg6xhFCKemN/crHsurgo0BRrNtXgYY4+8MEDI5sMAyz6OyLH9QGqKSRh7v1CakmGPBoEWewSm495h5gaG5YZFKi2l08mzJ6AU2O0Sd+kpAlQiDUrCf+6eE09GMUZBcxSADzhgI5LsVLC6mjjQV2NvSZA4SCimpDlEqXoBEd/s41j+RkFQIFxzkGqqOFY7reJ3xwRT+nQRxOgRyC/k9tKOGkB86/TISd7pE0B7Asqs7lUGntkP0namZIK0QToc/4tNLmbNyW/J1XELrs6BaCW6s8RQjlvPygeg8FSizqaAF0lfp0scOF9YB/HHWkVxNIZBVJSoNpOEWBWikcDlLX6fGF0gNIRLUVnO4elbATLwCigRYEFruEqvjHOhp4Maxsa6QA9TD8YVJrmqNKqm6UzCqSkQI29GzXPce1I4XSAbhcRixra9Q4/qs9yhxzshlFAlwJ0D2VeeCdyWOs9OkBhxSdV9Aih6+QdWgWxdEaBtClQr+3IRwcorPhkZTVCrxIGUJIuLMUMBRa5Rqs0TWBDsd1ZqwwKQLUkpEG2bvqOJ1p1sHRGgQQFbnbXkjtAKC737S9QAFonnqbGn+9FcKXthbC/jAJGKdCdd1PhqBWZkQLQ1vZT94zWyfIxChimQDdY5Iktbnh7T/Q0tQwKQPeIJ9TOzxwHL3oP24REJSFLNEMByNnkqV9QGe2MHKcWQwGoX/Zz7mB6wu0VQq/BtjJqESyRUcAUBSTS4Ml1BFxScTSA0jJfzHvoSqykstglo0BKCnh44WJSXc/bcXgz9V0KQKn5WCKjgCUUsHP8UHsFWRSOFicTkaL2LoF7c0jqsL4rr7mSdpNQC2KJRiig4p2MvJL1PLTh1q70fAgGKki037rwBJrKCluJrGnqiCjVwfeJF9QAxdmmJ2nnlXsz2FEUkx3+oBqg4D7RjlxeqLy0ElVju1Xi2qoLeEAmF0XxN0t+bOl1MqtXmtSM5O21/YUeFe2TFLaMlQE6tF+ZdP7E4lJ7aW+bF1lkYTzdX4nGJwEFPOnMqQbouVjAT5yfjBH12nzptofrLnS711nj6Rh+rEfHDyjtwvGikY/HldT+5M17GBJs9EYhuKiy+QQ+TZ7H3T7MSkd8SZoUR/u37ePt5bbzYb2w0iW6zMwfCVKQF2qAnpXCVDtnP3gqp/sbL/QZWzpL9Tb5ragysNvOSoH4Ll+jnVMDFO81cOoDRLD2eZOmBKNlt+djM0Q7JdhfmQJuYvHEEg3UYfX2EDyGekULaJiRghp8AyM5o4BVFMDqTRalBiiZg6UwClhPAWISRYw6ai0MoFSysMQsUsBh81IVKW20nUkMoFkcCVZ05hRgAM2chqyELFKAIsVnsbYiKdpPYdYtaLrfWIzUc356Xc0a6fTcxlIjUU6Iq4VFbSsKXIcSP4UybSFuSC9ubHUiOYsXuQAoenX8XIc+nG7hkrudeKZCBgiRy985w4cOp9eqJgPlJ5MlHO1AJem8lZETz5t15FbE2hPTa1Imb6UN0EgM4xylsqFke3IB0L3HueWfd6g6eRgSdFdy5JH6tgvGnQ6tzeWNYIDnMpInq23Gl5Ppj7DFwyacbH5LlK8GqEfDxkoqVxNFpLzA8nHGzzmTLYza7+Sd+tpNY0+ySwGqfZ/ywZIODXCw99NUANltLyu9k1KANPpgxQfqEo4Kyf1WAxQoLknyq0hkPSYZYKASudkFo4A2BeLebdqPOz5RAxQoTnbHUjID4NgH0vFFdscokAsKqAEKN7BeHf3ilFb4C8abMxdUYXXkgwJUBzc1QOF5RHWeT9uDOh89ZXUWLgWwZaMB7CJhi092r05uvRqgyc9U1/rB7lWZ2S2jAJUC2LJB3R/Xu92VW/UWBaBUB/WvpMCZWBZMGarmsNvOTgHEqqXsj5Oio4U+1K7TAGrzqbT8uP1EPHnA5NE41PpYIqMAdX+clpacAtARQm9y+xhO9ApE5b077McokAkFEEx5ZfSkagbEnspRjr7UYikALdEwJlHfZ4mMAqYoILvN04w+I+zdqeVQAFordMdxcuQuYf3jQqils0RGARUFTqvOPG5/rHU0LQWgVHUU9AIHY2eZIN9OT/Y3TQosD9bRottp+ulQAIqaqdbOBvEUdARptou9xigQp8Cy0BcqBhRrtc7xRnSAysfNdNzGiUJ/G/kKG0MZnRkFLKaAFEV0ea0y6QCtkcM7qSfLMC0kjla5LJ1RgKRAI/24GWmOo5rMrKTQATpKoJwIhiij6yNHtQpi6YwCKSlQL4ewo7CbfYl4DYmi6AClxwLh7fLxNOzHKJAuBVaE9qqs8GBAxwm9dI43ogMUDZgnDFBpmsCGvh45lG7b2HuMAtzhKOXk7flCFaLaalFHE6APeydSFKqSSD+kRqv4bKbzPGf2Xzabw8pOQQGc40GG/YIsPkjoR9dsxsvTRK58rCIF1/zvAjvu84xL0ZaOj0dexH1rKLdhP2ftfqOQOsZZx1ppd5Veo1ujaG+ztPMUwKY5X4ewp4Yog3M8EN9GpWPCiq9/vJEmQMEWjLNXboue6VAib9+rEUtcp40IdDL3UrlLf95lGT5OnTqza7fm8WRajZl+aeWjC4doPWXpxingNX8m5ieh/fuktmQ4gYfEiR8X0SXy823RBCjYAjAHAKiq0VQ2QpWHvAVG54zm8P8ftluD0R49KkdeMuTTrTuPNwe7OTUZFVVLfv1u05DK2J3zhqEl7JdLCoAz/JoWvG6kvccg8kyFpJZpDi3YgtH23io2FPDHIXR7CdQmFah3OXU4d/dEmXFM3vyu94Lus549K2deN6VvmftsOCmSge4rgPKPfn/oX17df4rtsNIllOUPccD7xmijqljAqY+9gq4yas+qCVBk6C9UDrWVt+c8/xdbkN8Ppy/LTxjE/Xw+N7CSy3zzPyI+OOzcnOunXDO2RtVInVtg9NfvHhh999rNOykSpc6L7FEmFPgy0rhNPJm8vqM0eHVOdPTXL1YPoNX2iqlCH5WyCbdgQzOR5bG8PjiVG9zdGowCpsOGXTx+XK3HbXTZVliCq370KcOoPjisegq0fBE9oZK5ASQ4zUEJql+LHkDhAVVjK1W9j4/gL5HDe8VvVOmmbhWMQrTPfB5FvcBodXXVhPGjjGMUb/Xt5vj7Z3cv/+vXplrOMqdBAbhwvBY+qJo+UU4vAl1k4XoARe4rXEOG8urzPeBd3yCqhSeyaP0UYPSW8dyNI63hR4FRsKTAaPfKcuMsaSAYXvRS/c9f3a3fVPY0Qwocj7Xui3UMH4cSpegUZ2qNSgqAjhV6I6qTapWH7mq9eCyTVT7RYYj2t4yxRmxSMHrtlAmmWFK05Mm3jly+aJMqsF6ihewicwrc2vKOan2Plynd7kotPKQAKGT5yXb1djvM1cvCdccs2qIE0f7OK7heJRYs98AoVARDh5pmSesaWhcs/vhARmxL5uPYOUvARIbpU7W+Y8pLyX0q5EgBUGS62V2rUjbJb0rRNWHTenKlSvL/MdXcdydaJjahfLMsKcSmj/Y13/rUJiY2kaOTYcorgR0UDyZJfNZ7rZGSUwP0KqEfWZCTdz4Y2ESmp50yuKdloj3akMySGmwSMIp5lIlNBsllPNtaKCWJOCJOyN+6+vlE+akBiqw4yFDNhiJVEj+IHEkUlPkFxKbHrpOt9pb8FIxOvXbCoIurDBYIjEJsuuUXu257ejtjSQ0STT/bG6H61dET6vVdCi/zTDR4urshgD7svZLSDl54I/g3SnpmSRDtZ43gSsz7IpDVAqP4N3Zs7eiRQ41roKB+WrX1G2ZtIulpNgVbLPdEGihTG28fYkDBpFRnCKC9bL6FjoGqmvBZbBAbN4nHzLY7ZX6I9gtGp8xlNAMwCk2+KS0pplJYm77z5MfMImqUyrR8B6NnVxPmTaBonr3fSAeFb6SVwRkCKDT2NzsGk6ISnFM2hOqp5WaYCIvov82V5XpLrPbKcm9KS6qITVc88EGGHenKr8vmTZU3HMdhXpvlHGhwfQf1DAEU+S5xVJE+9khfKR5N23dEf/B6+LjnbpLVT5b8FIzOnTlh7LAUxt/k6ibUqA1pyU/ZtQ4F4J78ZGg7mWGUvXy+AfVn4kWjAB1sL7+GMJvia9gmfoMPJVGctRcQm/7pOu7qQZbNo60hbtSlJljSb0+gbh60tpeds7TNoYPAhlo84qJQqxufPkEaowBF1qmuYaTZExqEV0J1+FyyRGZgFM7Ocy+xQI2vtBAOUNDkK8u9fpsD/ujY0QP087CnWhR4JLAZukj1U0n8gWe8OlH33gRAxwh9yJhN+ERWiQ3bw4d1a8noITAKsQlWe6s8S9AaGO4nTZ6gL9oP6uMr92bU8i77MvSPpPFdFo+EAViKTZHFBEBR7oulc1URR5CID2VO21pTtaaRGRi97ypZ/WSV2OQSOPg7a2lJ4XFy45VVaWxsSKNrnewVaJce9b9PMb5L0X/zTTbbWXMABfeAMDoqfROqDEthqGTN1m02Pyyi91xljbMzqobYhOV+zJhaqi8p1vdJQ5yYvNnPLAVeCXy+M0oxvs8T+sPD2Gxp5gCK0h8BD9ExbJNcJW9fGtx6IEq4VJltTqr8sIjeNZm7/CLLlns4l1AN91DXV/ViC3yq8SCeI7jNmvAhcgoDZu5y1WrFWCSKuZBgGqD4CMhJVBbno2dWZcGwdKGl7VdQP31nomwRtYolpWpJR1WX9O7DRPh2ohv++2n461XRY6TwDsxMcKYjcZoGKD6Ce9xjVC1Q2v+G+PXnYrZUTskkwsqrODsnJ2ZyrWAUYpOiJQUDOnV4GWZr9jNFASyhN/s3kNhAyq2OIaa0S4l6TQMUb44Sen7PcbFqGkcjoPd6J7QnZ0FuITZ9+1J5HrVKbMJpx4qWFH3sXmGFN0CCzF3j4leBrSpUoN9ImW3vPdOd2jeZSiRewuxh/oeZEm7S2OGpehWtWeubNd01TJWevdtPD3Lv7OYaW/S22wPB+ueqA5rdPNygSq7cIweY8H/zNTSgbAY1NWqYPoec/S/40aneQtTOz8oXGnRPVr2LW83ADWTW5BRFJ7ov2iFQhJIBKqdQDgEKq/2g3twrG7kDp5MbeOEa6qSxVVy/budTwB4AhVBwqnScCY1SXHJPh1u6UGWXvHrC/yGpWsKEtdA5NG10gpBpzqDKELjOvECOBVROz3uvecBk/CayHLMp8DwCyJhiyCzdLMn/QmAbHNhJ7hOFH+52R3rcp9KwdHjQRJeWeiYCjolb5QJ6+2XBHVnyIFHVlXwL6Z6hM5kgObvGWL8a3kOtDo7JlbaMtHUZAfQ290hoX0m+GG54P/Nvyp6BnkoLlpgXCmBPHMaadKtTZCM4LulHtknZ5owACpXTg+7R5MSOFIS6hT9LyupZhmKnwKbQgdfD+6kYMOX3qUWHjACKQiGwP+0aRU6iaPENbauz4W+v1ROWnnsKQHKf0fo26bUEPEARaTaOLLX9mQIUhc5zX0pxw8MDXrizZTVb6Kl07wSJsGre2voWKbmja5ieHvOa9guh0sQCgMKB6j+8V5OH1KCVCJLzXNtH1IpZYrFT4M1QPekUgk4BCa/6ppt1q9OihgUARdFY6KHuoiz0vPOZcH0OHJ20usfSs0QBWGqgqyELh1YHSFjgSh10iXyXmmINQFH0spKZWOhJjCIFjk65sdFTe8gSLacA9EoTm9+ErkZVMsZ6nNDzX7xX6RyKoHol5a1lAIVE/2rpbJIZxUIPHcTSwFaNU8ZStpBlKCwKQKj4cet7wCJGVtUypPzcPWG4vVKVnsmtZQBFIxAk57vukWRr0G5oIu5rWUM+YinFRQFoPZ9s+2ileJxEJxZ3GG4sd8OwEqCg9WOe8XBdIRd6aCKwdWlx67riGg/WWhUFcAjRi+F6ql4Jidmwb1sMUJgNVpbfRH5e6Cc68FS47qnAJ6o+s9tiocB/Brbd76dEslCW+7ryhdnoiMUAVZr4jm8Gta0A7pLAZ+gn9SlLLGQKrAt9uSiwhfSmQ5sheLzpnWaVXklFhKwA9BrXELAjqpqUW3xt6CezMFGJU7CJENv/0f8RybmhwUiE4JG2P3LKLmcFoFjov+8Zcz+CNpK+TpwdXZrWvAKHkqRsHMtQCBTASC1s/YvqkDilYRjfex2DIXhk6BGi082M/EF1ylUePdS6blloJ52n5uzvlc6b4rgoZSEsQx4pgBAM3299l45OLorF/cuKu7PavKzMoIkWP10yleqPB2YU8yh6bm0I3ES97MISCmB0EIJBC52IorilW1YEo+TGZxegsCg8WzIDPSHZF2AUPWcYTR6MgroG34nRIR090UiMJg4aRpiQNPa5m+1jdgGK1kC4w9HzVCuogtGZLauYzGR22LKdH+iEuYg6d6JqDNwj7vHYl5btZqD87PKgiQ5ASQExkNphfI7oMDRTlhshErWzC1MU0Oc7czxYOQIoCARhcFLzcgWOKnopidBMZcMUoaqL3epTAFpq6AG1hgkr4RPeyUYO4NKvxfjTrC/xiaZg7ynUuVprPbI9EtjC7EwJcuXlAo6Riq0I06SqAYAsxm6pZ1Iu0Yk25G4GVTr8dnDP3/nXUz9QZED6ImftL0umq6jDbrNNAcSDeb5t449DO3UqghtyjtGJxuQaoKgSa/1tLW9R+VE8he53vtD36ZKZ1npt6dCdPcLWIoRdeD28j2rJVGaTfAkJeQAoAKHDhssYjWsx4FnIxKYcfDwQ2G9sXqE5X8RX9hzzncm9zg9A0QL42P+0bSN88Eg7k4JRsEHY9n+H5zIL3bOTe86u4dy5IrT/Cf9GHXTOt/f6oe8a6nGYuSFg3gCK7mFlebR1rRZGlf7f4hjwC9/UTGKn5IaORVcLHOPvan4L5xTqyAOQimAryoE2Xod6+QSo0ix4McNPlBQblacgHw4QW+WbNcs9PHseCToE6nyPIA/hDLgRZ3+LHcM6ZMfZgv9dekPeu59/gIIET7VtWBKq06EFdrIu8V51j+sSNpXqUMnII+wMezm0e3HgEy1oKoXAEw1+FIXAXBUEQEEUHf2wQjJMpbDpI875jTi/nv3SogBk0+f8W7Cs679dUKx/oQAUJDuvfoo1U8UmZFC4JcRU+VXpbLbc64NM9RTL+mOt67GdSIvjlMkL513evr3slkuEXoVD3gICqEJTuJCmoCO4Uo573nMVYuvll39XgaAwbyEM/TG4S8t6qbRZQe1jzprFJdMKB5pK2woOoGgWDG6I9UB19EqAQNHnP+Aei+0lhUbTRCPzewEt0nbxxL+3fbhSPEbVwCvNAzpzb2E3TplCBChar7h7yfuvyfMe2zuX+O6nu4Yzz/x2qpz/Cw/G5cE6/bUIWfGdIxbIS77pufGdUzXSyG2BAhRNxwTwbOCzxf5NOtoQmcTxCWCq0OenvilMxlfo9lDLmg1io5b6XYEF6Ab9XeHrRgoXoAodMZU+3rpeR5+cTG6ErYJWHzGnu+CiDzGoIdryjH/jb8L1KT9pEC3vJiJl4FL+X+gARQcUi5zMleL8ce0VHzmVRX+xq3aiUDXWWd1FRCiF19wQaUDMAYUCOqOODNitMV+oetR3TSGoOXWaqjwqAoAqDYXt/k/BXbA54VZfyawMEmyksCAjRnonXvcVCR2U+W3kK3CT+l8v6IY89zqHPey9sog8xYoGoDJ9udhWsRFRmxEXN/VgxHeSjLKXj7NVINpvluJeKB9P7v+HQegFWeXeiBCyKWdNBZqg2PqyBWOF3kUxcSZIWkwATTQap/Lg3BOjYxOXBqBngb/tNEdVuc1TXCOU6DWW8oAkbgwd+GHg432xc/qMZuItwLeQtUiJdmpdFCVA0RlMIQhBjSC/RmZTpfPKIgh19HihX3+hcrjQs1iQikW8QTyzVTz2v5HDgKaOUjN5mJX+YqfXLOeQ4l1AihWgykhg5DZHjsZhanjY5AlVDgQ82d5nuL1ivKN/rdC9AJGK+bJOPL010nA02hTHZTPskPrMdwKdCjQXey6/Wqgqdg1xcQMUQwLG9EzMvz5y9M62dRgYE6MYN5li+bvE5kM545wDb3IOzbv0ALXaX8OH1oYP8Zy4O9aG43qNsJgKNJET3x7HSS96p0A67BzqtqIHaGLawAV403XhfRhXfR118iu4lsdV+Umi8vdeZ83t7kt727zdeKeTd3h4wfIpVmEoUV1TLHgk1rIitHdZ6IvzzeB4fGa4NjhfIqfCaJbZXPc4R1hyOlF7S/L/t1MBND5UsQ9D+78QG7FB0dSEmjwUialoqK281lZ+sb0bmIF+vMfG8W7e3t1eVsZ7lPw+3q4ldQGC52KBNnlKk3/NUuB0tDkoRWOcdEwK7I02fRU9e4QLwocLWxeNT/xKacr/SjshnsN9cy7Uaq7Bln9IydXl5bqzATRBRPg+7hFPvBzeIyNA23U8kV/r4vz82o4zICnBFUicUGpzdec9PeITXnIJISnawnGnpUBLLIR0Zb3GvB5fguMZTc6RyYXjOg5NEaEGMGWOEHpf6ejXWY1nnRagyohClX0yJp9siz21cgov4D/jS6dSCPn/edSSD7RTLKs0zmXOEwYgdle1vaLTW8s6OUCTAYM59eXg53ti55pjIVPCR3Ihub/GxwBwV/NusJgjbOW3OobMdY/IfTPyVWMXAqhCYrCG8JLcGTkO9Q1OwZP5VPwMa3ByM07xFVxmXofayuCoNVroc5mjb9EZgSyhVZcDaDLV4DTZJJ47IvkhsiASNBQ0acsrycWmd90OSgl8COJqw0HzIt5bJVQUkUEhvY7rv9WlAaqQBppU6A8hcZ+VwooOcpX4dTvVePkiSQayjJVUKogzlMol2MoZzoHfcg6EbguaATsHx63chXZT2lCA/zOA0gclof8/GDtbL55sjcnnUjZwYoJ/pb+mnZrgI/tzsqBWYvPVCL16cMKMYrZDanfXsicMoEZJqajWD0XP1UebGsUOO3f9CVV/UmHejhEM+wi9a+wVVTavlt406VV2eYECDKAXaMGuCpACjMspwEFhTbpAAQbQC7RgVwVIAQbQAhwU1qQLFGAAvUALdlWAFGAALcBBYU26QIH/BxaRDja4rlbAAAAAAElFTkSuQmCC;" parent="1" vertex="1">
          <mxGeometry x="464.9546839202378" y="294.01091254752845" width="26.60752474465353" height="26.60752474465353" as="geometry" />
        </mxCell>
        <mxCell id="EQLkxKmraLCGRCHlAuL3-2" value="APIRule (no auth)" style="rounded=1;whiteSpace=wrap;html=1;strokeColor=#0070F2;fillColor=#EBF8FF;arcSize=24;absoluteArcSize=1;imageWidth=64;imageHeight=64;strokeWidth=1.5;" vertex="1" parent="1">
          <mxGeometry x="452.64" y="238" width="125" height="31" as="geometry" />
        </mxCell>
        <mxCell id="EQLkxKmraLCGRCHlAuL3-3" value="Service (application)" style="rounded=1;whiteSpace=wrap;html=1;strokeColor=#5d36ff;fillColor=#f1ecff;arcSize=24;absoluteArcSize=1;imageWidth=64;imageHeight=64;strokeWidth=1.5;" vertex="1" parent="1">
          <mxGeometry x="745.4100000000001" y="260.81" width="125" height="31" as="geometry" />
        </mxCell>
        <mxCell id="EQLkxKmraLCGRCHlAuL3-4" value="" style="rounded=1;whiteSpace=wrap;html=1;strokeColor=#5d36ff;fillColor=#f1ecff;arcSize=24;absoluteArcSize=1;imageWidth=64;imageHeight=64;strokeWidth=1.5;dashed=1;dashPattern=1 2;" vertex="1" parent="1">
          <mxGeometry x="710" y="333.48" width="225" height="128" as="geometry" />
        </mxCell>
        <mxCell id="Z4dEkWU-I7dmtToVSUjf-69" value="Application Authorization Policy" style="rounded=1;whiteSpace=wrap;html=1;strokeColor=#5d36ff;fillColor=#FFFFFF;arcSize=24;absoluteArcSize=1;imageWidth=64;imageHeight=64;strokeWidth=1.5;" parent="1" vertex="1">
          <mxGeometry x="729.9978121906379" y="376.06167883211674" width="172.52" height="22.93" as="geometry" />
        </mxCell>
        <mxCell id="Z4dEkWU-I7dmtToVSUjf-188" value="" style="aspect=fixed;sketch=0;html=1;dashed=0;whitespace=wrap;verticalLabelPosition=bottom;verticalAlign=top;fillColor=#2875E2;strokeColor=#ffffff;points=[[0.005,0.63,0],[0.1,0.2,0],[0.9,0.2,0],[0.5,0,0],[0.995,0.63,0],[0.72,0.99,0],[0.5,1,0],[0.28,0.99,0]];shape=mxgraph.kubernetes.icon2;kubernetesLabel=1;prIcon=deploy" parent="1" vertex="1">
          <mxGeometry x="793.94" y="336.48" width="36.06" height="34.62" as="geometry" />
        </mxCell>
        <mxCell id="EQLkxKmraLCGRCHlAuL3-5" value="Istio Sidecar (Envoy)" style="rounded=1;whiteSpace=wrap;html=1;strokeColor=#5d36ff;fillColor=#FFFFFF;arcSize=24;absoluteArcSize=1;imageWidth=64;imageHeight=64;strokeWidth=1.5;" vertex="1" parent="1">
          <mxGeometry x="720" y="410.98" width="95" height="43" as="geometry" />
        </mxCell>
        <mxCell id="EQLkxKmraLCGRCHlAuL3-6" value="Application" style="rounded=1;whiteSpace=wrap;html=1;strokeColor=#5d36ff;fillColor=#FFFFFF;arcSize=24;absoluteArcSize=1;imageWidth=64;imageHeight=64;strokeWidth=1.5;" vertex="1" parent="1">
          <mxGeometry x="830" y="410.98" width="95" height="43" as="geometry" />
        </mxCell>
        <mxCell id="EQLkxKmraLCGRCHlAuL3-8" value="" style="endArrow=blockThin;html=1;strokeColor=#07838F;bendable=1;rounded=0;endFill=1;endSize=4;strokeWidth=1.5;startSize=4;startArrow=none;startFill=0;exitX=0.75;exitY=0;exitDx=0;exitDy=0;entryX=0;entryY=0.5;entryDx=0;entryDy=0;" edge="1" parent="1" source="Z4dEkWU-I7dmtToVSUjf-52" target="EQLkxKmraLCGRCHlAuL3-3">
          <mxGeometry width="50" height="50" relative="1" as="geometry">
            <mxPoint x="620" y="275.78" as="sourcePoint" />
            <mxPoint x="740" y="275.78" as="targetPoint" />
            <Array as="points">
              <mxPoint x="616" y="276" />
            </Array>
          </mxGeometry>
        </mxCell>
        <mxCell id="EQLkxKmraLCGRCHlAuL3-27" value="&lt;b style=&quot;border-color: var(--border-color); font-family: arial; font-style: normal; font-variant-ligatures: normal; font-variant-caps: normal; letter-spacing: normal; orphans: 2; text-indent: 0px; text-transform: none; widows: 2; word-spacing: 0px; -webkit-text-stroke-width: 0px; background-color: rgb(251, 251, 251); text-decoration-thickness: initial; text-decoration-style: initial; text-decoration-color: initial;&quot;&gt;&lt;font style=&quot;font-size: 12px;&quot; color=&quot;#1d2d3e&quot;&gt;Namespace&lt;/font&gt;&lt;/b&gt;" style="text;whiteSpace=wrap;html=1;align=center;verticalAlign=top;points=[[0,0,0,0,0],[0,0.25,0,0,0],[0,0.5,0,0,0],[0,0.75,0,0,0],[0,1,0,0,0],[0.25,0,0,0,0],[0.25,1,0,0,0],[0.5,0,0,0,0],[0.5,1,0,0,0],[0.75,0,0,0,0],[0.75,1,0,0,0],[1,0,0,0,0],[1,0.25,0,0,0],[1,0.5,0,0,0],[1,0.75,0,0,0],[1,1,0,0,0]];movable=1;resizable=1;rotatable=1;deletable=1;editable=1;locked=0;connectable=1;" vertex="1" parent="1">
          <mxGeometry x="642" y="197" width="77.83" height="20.65" as="geometry" />
        </mxCell>
        <mxCell id="EQLkxKmraLCGRCHlAuL3-28" value="&lt;font color=&quot;#475e75&quot; size=&quot;1&quot;&gt;&lt;b style=&quot;&quot;&gt;JWT Token&lt;/b&gt;&lt;/font&gt;" style="rounded=1;whiteSpace=wrap;html=1;arcSize=50;strokeColor=#475e75;fillColor=#f5f6f7;strokeWidth=1.5;" vertex="1" parent="1">
          <mxGeometry x="592.24" y="288.94" width="61.43" height="12.74" as="geometry" />
        </mxCell>
        <mxCell id="EQLkxKmraLCGRCHlAuL3-41" value="&lt;b style=&quot;border-color: var(--border-color); font-family: arial; font-style: normal; font-variant-ligatures: normal; font-variant-caps: normal; letter-spacing: normal; orphans: 2; text-indent: 0px; text-transform: none; widows: 2; word-spacing: 0px; -webkit-text-stroke-width: 0px; background-color: rgb(251, 251, 251); text-decoration-thickness: initial; text-decoration-style: initial; text-decoration-color: initial;&quot;&gt;&lt;font style=&quot;font-size: 12px;&quot; color=&quot;#1d2d3e&quot;&gt;Cluster&lt;/font&gt;&lt;/b&gt;" style="text;whiteSpace=wrap;html=1;align=center;verticalAlign=top;points=[[0,0,0,0,0],[0,0.25,0,0,0],[0,0.5,0,0,0],[0,0.75,0,0,0],[0,1,0,0,0],[0.25,0,0,0,0],[0.25,1,0,0,0],[0.5,0,0,0,0],[0.5,1,0,0,0],[0.75,0,0,0,0],[0.75,1,0,0,0],[1,0,0,0,0],[1,0.25,0,0,0],[1,0.5,0,0,0],[1,0.75,0,0,0],[1,1,0,0,0]];movable=1;resizable=1;rotatable=1;deletable=1;editable=1;locked=0;connectable=1;" vertex="1" parent="1">
          <mxGeometry x="640" y="177" width="56" height="20.65" as="geometry" />
        </mxCell>
        <mxCell id="EQLkxKmraLCGRCHlAuL3-39" value="" style="image;sketch=0;aspect=fixed;html=1;points=[];align=center;fontSize=12;image=img/lib/mscae/Kubernetes.svg;" vertex="1" parent="1">
          <mxGeometry x="646" y="172.28" width="38" height="36.48" as="geometry" />
        </mxCell>
        <mxCell id="EQLkxKmraLCGRCHlAuL3-44" value="" style="endArrow=blockThin;html=1;strokeColor=#07838F;bendable=1;rounded=0;endFill=1;endSize=4;strokeWidth=1.5;startSize=4;startArrow=none;startFill=0;exitX=0.5;exitY=1;exitDx=0;exitDy=0;entryX=0.437;entryY=-0.002;entryDx=0;entryDy=0;entryPerimeter=0;" edge="1" parent="1" source="EQLkxKmraLCGRCHlAuL3-3" target="EQLkxKmraLCGRCHlAuL3-4">
          <mxGeometry width="50" height="50" relative="1" as="geometry">
            <mxPoint x="1080" y="336.48" as="sourcePoint" />
            <mxPoint x="1200" y="336.48" as="targetPoint" />
            <Array as="points" />
          </mxGeometry>
        </mxCell>
      </root>
    </mxGraphModel>
  </diagram>
</mxfile>
